<?xml version="1.0" encoding="UTF-8" standalone="no"?>
<!DOCTYPE svg PUBLIC "-//W3C//DTD SVG 1.1//EN" "http://www.w3.org/Graphics/SVG/1.1/DTD/svg11.dtd">
<svg width="100%" height="100%" viewBox="0 0 176 255" version="1.1" xmlns="http://www.w3.org/2000/svg" xmlns:xlink="http://www.w3.org/1999/xlink" xml:space="preserve" xmlns:serif="http://www.serif.com/" style="fill-rule:evenodd;clip-rule:evenodd;stroke-linejoin:round;stroke-miterlimit:2;">
    <g transform="matrix(1,0,0,1,93.5568,130.057)">
        <path d="M45.4,-47.6C55.5,-35.3 58,-17.7 59,1C60,19.6 59.4,39.3 49.3,51C39.3,62.8 19.6,66.6 3.8,62.8C-12,59 -24.1,47.6 -37,35.8C-49.9,24.1 -63.7,12 -69,-5.3C-74.3,-22.6 -71,-45.2 -58.1,-57.5C-45.2,-69.8 -22.6,-71.8 -2.5,-69.3C17.7,-66.9 35.3,-59.9 45.4,-47.6Z" style="fill:white;fill-opacity:0.56;fill-rule:nonzero;"/>
    </g>
    <g transform="matrix(1.11276,0,0,1.38894,68.2508,136.238)">
        <path d="M53.9,-51.6C70.5,-37.3 85,-18.7 85.5,0.4C85.9,19.6 72.3,39.1 55.7,52.3C39.1,65.6 19.6,72.5 -0.1,72.7C-19.8,72.8 -39.7,66.2 -48.8,52.9C-58,39.7 -56.4,19.8 -55.7,0.7C-54.9,-18.4 -55.1,-36.8 -45.9,-51.1C-36.8,-65.4 -18.4,-75.5 0.1,-75.7C18.7,-75.8 37.3,-65.9 53.9,-51.6Z" style="fill:white;fill-opacity:0.42;fill-rule:nonzero;"/>
    </g>
    <g transform="matrix(1,0,0,1,102.946,95.5872)">
        <path d="M47.1,-52.1C57.9,-36.3 61.4,-18.2 63.8,2.4C66.3,23 67.7,46.1 56.9,57C46.1,67.9 23,66.7 3.1,63.6C-16.9,60.5 -33.8,55.6 -44.2,44.7C-54.6,33.8 -58.5,16.9 -57.9,0.7C-57.2,-15.6 -52,-31.1 -41.6,-47C-31.1,-62.8 -15.6,-78.8 1.3,-80.1C18.2,-81.4 36.3,-67.9 47.1,-52.1Z" style="fill:white;fill-opacity:0.39;fill-rule:nonzero;"/>
    </g>
</svg>
