<?xml version="1.0" encoding="UTF-8" standalone="no"?>
<!DOCTYPE svg PUBLIC "-//W3C//DTD SVG 1.1//EN" "http://www.w3.org/Graphics/SVG/1.1/DTD/svg11.dtd">
<svg width="100%" height="100%" viewBox="0 0 472 320" version="1.1" xmlns="http://www.w3.org/2000/svg" xmlns:xlink="http://www.w3.org/1999/xlink" xml:space="preserve" xmlns:serif="http://www.serif.com/" style="fill-rule:evenodd;clip-rule:evenodd;stroke-linejoin:round;stroke-miterlimit:2;">
    <g transform="matrix(1,0,0,1,-46.986,-39.474)">
        <path d="M102.325,162.785L60.151,162.785C55.088,162.785 50.983,158.681 50.983,153.617L50.983,63.769C50.983,58.706 55.088,54.601 60.151,54.601L102.325,54.601C107.389,54.601 111.493,58.706 111.493,63.769L111.493,153.617C111.493,158.681 107.389,162.785 102.325,162.785Z" style="fill:rgb(70,70,72);fill-rule:nonzero;"/>
    </g>
    <g transform="matrix(1,0,0,1,-46.986,-39.474)">
        <rect x="56.942" y="64.228" width="49.509" height="84.347" style="fill:rgb(201,208,219);fill-rule:nonzero;"/>
    </g>
    <g transform="matrix(1,0,0,1,-46.986,-39.474)">
        <path d="M87.397,58.421C87.397,58.846 87.052,59.191 86.627,59.191L75.849,59.191C75.424,59.191 75.079,58.846 75.079,58.421C75.079,57.996 75.424,57.651 75.849,57.651L86.627,57.651C87.052,57.651 87.397,57.996 87.397,58.421Z" style="fill:rgb(212,212,212);fill-rule:nonzero;"/>
    </g>
    <g transform="matrix(1,0,0,1,-46.986,-39.474)">
        <path d="M85.951,155.298C85.951,156.627 84.874,157.705 83.544,157.705L78.931,157.705C77.602,157.705 76.525,156.627 76.525,155.298C76.525,153.969 77.602,152.891 78.931,152.891L83.544,152.891C84.874,152.891 85.951,153.969 85.951,155.298Z" style="fill:rgb(212,212,212);fill-rule:nonzero;"/>
    </g>
    <g transform="matrix(1,0,0,1,-46.986,-39.474)">
        <path d="M238.932,111.444L238.932,153.617C238.932,158.681 234.827,162.785 229.763,162.785L139.915,162.785C134.852,162.785 130.746,158.681 130.746,153.617L130.746,111.444C130.746,106.38 134.852,102.275 139.915,102.275L229.763,102.275C234.827,102.275 238.932,106.38 238.932,111.444Z" style="fill:rgb(70,70,72);fill-rule:nonzero;"/>
    </g>
    <g transform="matrix(1,0,0,1,-46.986,-39.474)">
        <rect x="140.373" y="107.318" width="84.348" height="49.508" style="fill:rgb(201,208,219);fill-rule:nonzero;"/>
    </g>
    <g transform="matrix(1,0,0,1,-46.986,-39.474)">
        <path d="M134.567,126.372C134.992,126.372 135.337,126.716 135.337,127.142L135.337,137.919C135.337,138.344 134.992,138.689 134.567,138.689C134.142,138.689 133.797,138.344 133.797,137.919L133.797,127.142C133.797,126.716 134.142,126.372 134.567,126.372Z" style="fill:rgb(212,212,212);fill-rule:nonzero;"/>
    </g>
    <g transform="matrix(1,0,0,1,-46.986,-39.474)">
        <path d="M231.444,127.817C232.773,127.817 233.851,128.895 233.851,130.224L233.851,134.837C233.851,136.166 232.773,137.244 231.444,137.244C230.115,137.244 229.037,136.166 229.037,134.837L229.037,130.224C229.037,128.895 230.115,127.817 231.444,127.817Z" style="fill:rgb(212,212,212);fill-rule:nonzero;"/>
    </g>
    <g transform="matrix(1,0,0,1,-46.986,-39.474)">
        <path d="M265.061,165.994L265.061,48.642C265.061,43.578 269.166,39.474 274.229,39.474L357.201,39.474C362.265,39.474 366.37,43.578 366.37,48.642L366.37,165.994C366.37,171.058 362.265,175.163 357.201,175.163L274.229,175.163C269.166,175.163 265.061,171.058 265.061,165.994Z" style="fill:rgb(70,70,72);fill-rule:nonzero;"/>
    </g>
    <g transform="matrix(1,0,0,1,-46.986,-39.474)">
        <rect x="268.957" y="47.725" width="93.516" height="114.144" style="fill:rgb(201,208,219);fill-rule:nonzero;"/>
    </g>
    <g transform="matrix(1,0,0,1,-46.986,-39.474)">
        <path d="M320.429,167.255C320.429,168.584 319.351,169.662 318.022,169.662L313.409,169.662C312.08,169.662 311.002,168.584 311.002,167.255C311.002,165.926 312.08,164.848 313.409,164.848L318.022,164.848C319.351,164.848 320.429,165.926 320.429,167.255Z" style="fill:rgb(212,212,212);fill-rule:nonzero;"/>
    </g>
    <g transform="matrix(1,0,0,1,-46.986,-39.474)">
        <path d="M317.052,43.714C317.052,44.452 316.454,45.051 315.715,45.051C314.977,45.051 314.378,44.452 314.378,43.714C314.378,42.975 314.977,42.377 315.715,42.377C316.454,42.377 317.052,42.975 317.052,43.714Z" style="fill:rgb(212,212,212);fill-rule:nonzero;"/>
    </g>
    <g transform="matrix(1,0,0,1,-46.986,-39.474)">
        <path d="M508.935,175.163L391.582,175.163C386.519,175.163 382.414,171.058 382.414,165.994L382.414,83.023C382.414,77.959 386.519,73.854 391.582,73.854L508.935,73.854C513.999,73.854 518.104,77.959 518.104,83.023L518.104,165.994C518.104,171.058 513.999,175.163 508.935,175.163Z" style="fill:rgb(70,70,72);fill-rule:nonzero;"/>
    </g>
    <g transform="matrix(1,0,0,1,-46.986,-39.474)">
        <rect x="390.665" y="77.751" width="114.145" height="93.515" style="fill:rgb(201,208,219);fill-rule:nonzero;"/>
    </g>
    <g transform="matrix(1,0,0,1,-46.986,-39.474)">
        <path d="M510.196,119.795C511.525,119.795 512.603,120.873 512.603,122.202L512.603,126.815C512.603,128.144 511.525,129.221 510.196,129.221C508.867,129.221 507.789,128.144 507.789,126.815L507.789,122.202C507.789,120.873 508.867,119.795 510.196,119.795Z" style="fill:rgb(212,212,212);fill-rule:nonzero;"/>
    </g>
    <g transform="matrix(1,0,0,1,-46.986,-39.474)">
        <path d="M386.654,123.171C387.393,123.171 387.991,123.77 387.991,124.508C387.991,125.247 387.393,125.845 386.654,125.845C385.916,125.845 385.317,125.247 385.317,124.508C385.317,123.77 385.916,123.171 386.654,123.171Z" style="fill:rgb(212,212,212);fill-rule:nonzero;"/>
    </g>
    <g transform="matrix(1,0,0,1,-46.986,-39.474)">
        <rect x="118.622" y="315.359" width="65.764" height="40.515" style="fill:rgb(153,153,153);fill-rule:nonzero;"/>
    </g>
    <g transform="matrix(1,0,0,1,-46.986,-39.474)">
        <path d="M244.278,334.736L58.729,334.736C52.244,334.736 46.986,329.478 46.986,322.992L46.986,202.034C46.986,195.548 52.244,190.29 58.729,190.29L244.278,190.29C250.764,190.29 256.021,195.548 256.021,202.034L256.021,322.992C256.021,329.478 250.764,334.736 244.278,334.736Z" style="fill:rgb(70,70,72);fill-rule:nonzero;"/>
    </g>
    <g transform="matrix(1,0,0,1,-46.986,-39.474)">
        <rect x="54.619" y="197.336" width="194.944" height="112.141" style="fill:rgb(201,208,219);fill-rule:nonzero;"/>
    </g>
    <g transform="matrix(1,0,0,1,-46.986,-39.474)">
        <path d="M46.986,317.234L46.986,322.992C46.986,329.478 52.244,334.736 58.729,334.736L244.278,334.736C250.764,334.736 256.021,329.478 256.021,322.992L256.021,317.234L46.986,317.234Z" style="fill:rgb(212,212,212);fill-rule:nonzero;"/>
    </g>
    <g transform="matrix(1,0,0,1,-46.986,-39.474)">
        <rect x="114.498" y="353.254" width="74.012" height="6.143" style="fill:rgb(70,70,72);fill-rule:nonzero;"/>
    </g>
    <g transform="matrix(1,0,0,1,-46.986,-39.474)">
        <path d="M494.16,353.254L494.16,244.576C494.16,238.568 489.29,233.698 483.282,233.698L311.401,233.698C305.393,233.698 300.523,238.568 300.523,244.576L300.523,353.254L494.16,353.254Z" style="fill:rgb(70,70,72);fill-rule:nonzero;"/>
    </g>
    <g transform="matrix(1,0,0,1,-46.986,-39.474)">
        <rect x="307.594" y="240.225" width="180.583" height="103.88" style="fill:rgb(201,208,219);fill-rule:nonzero;"/>
    </g>
    <g transform="matrix(1,0,0,1,-46.986,-39.474)">
        <path d="M285.269,351.291L285.269,353.958C285.269,356.962 290.719,359.397 297.441,359.397L497.242,359.397C503.964,359.397 509.414,356.962 509.414,353.958L509.414,351.291L285.269,351.291Z" style="fill:rgb(201,201,201);fill-rule:nonzero;"/>
    </g>
    <g transform="matrix(1,0,0,1,-46.986,-39.474)">
        <path d="M398.34,236.704C398.34,237.255 397.893,237.702 397.342,237.702C396.79,237.702 396.343,237.255 396.343,236.704C396.343,236.152 396.79,235.705 397.342,235.705C397.893,235.705 398.34,236.152 398.34,236.704Z" style="fill:rgb(212,212,212);fill-rule:nonzero;"/>
    </g>
</svg>
