<?xml version="1.0" encoding="UTF-8" standalone="no"?>
<!DOCTYPE svg PUBLIC "-//W3C//DTD SVG 1.1//EN" "http://www.w3.org/Graphics/SVG/1.1/DTD/svg11.dtd">
<svg width="100%" height="100%" viewBox="0 0 120 191" version="1.1" xmlns="http://www.w3.org/2000/svg" xmlns:xlink="http://www.w3.org/1999/xlink" xml:space="preserve" xmlns:serif="http://www.serif.com/" style="fill-rule:evenodd;clip-rule:evenodd;stroke-linejoin:round;stroke-miterlimit:2;">
    <g transform="matrix(0.914946,-0.403577,-0.403577,-0.914946,63.6346,79.2426)">
        <path d="M-15.038,-2.04C-15.038,-2.04 -0.605,16.176 1.848,35.824C4.3,55.474 -6.098,68.13 -15.038,73.717C-8.172,57.705 -8.528,38.482 -11.185,27.721C-13.843,16.96 -15.948,6.425 -15.038,-2.04" style="fill:rgb(92,170,46);fill-rule:nonzero;"/>
    </g>
    <g transform="matrix(1,0,0,1,51.9335,27.1289)">
        <path d="M0,92.322C-0.012,84.371 -0.334,76.403 -0.857,68.459C-1.403,60.515 -2.165,52.582 -3.305,44.7C-3.861,40.758 -4.533,36.832 -5.319,32.928C-6.096,29.024 -7.017,25.146 -8.131,21.324C-9.248,17.505 -10.523,13.722 -12.169,10.094C-13.824,6.482 -15.809,2.974 -18.474,-0.002C-15.781,2.95 -13.762,6.446 -12.072,10.05C-10.391,13.67 -9.079,17.447 -7.926,21.263C-6.775,25.083 -5.817,28.959 -5.006,32.864C-4.183,36.766 -3.474,40.694 -2.882,44.637C-1.669,52.522 -0.836,60.461 -0.217,68.413C0.378,76.369 0.772,84.335 0.856,92.324L0,92.322Z" style="fill:rgb(20,71,20);fill-rule:nonzero;"/>
    </g>
    <g transform="matrix(0.792143,0.610336,0.610336,-0.792143,50.0828,97.9254)">
        <path d="M18.657,-5.68C18.657,-5.68 9.469,2.151 7.358,14.176C5.247,26.2 10.688,46.172 18.657,56.309C16.799,42.884 15.864,30.716 19.917,18.628C23.971,6.541 19.897,-4.015 18.657,-5.68" style="fill:rgb(28,94,28);fill-rule:nonzero;"/>
    </g>
    <g transform="matrix(1,0,0,1,56.9032,70.143)">
        <path d="M0,58.282C1.116,52.638 2.775,47.175 4.755,41.816C6.752,36.467 9.147,31.27 11.898,26.276C12.613,25.041 13.249,23.762 14.026,22.566L16.311,18.95C17.081,17.751 17.957,16.622 18.774,15.456L20.021,13.72C20.452,13.153 20.921,12.615 21.368,12.06L24.084,8.761L27.028,5.664L28.504,4.122L30.092,2.694L33.266,-0.162L30.135,2.739L28.57,4.189L27.118,5.751L24.226,8.885L21.564,12.216C21.126,12.774 20.667,13.318 20.246,13.889L19.028,15.638C18.23,16.813 17.374,17.949 16.625,19.155L14.402,22.789C13.646,23.991 13.031,25.276 12.339,26.514C9.673,31.525 7.366,36.728 5.46,42.073C3.572,47.414 1.998,52.904 0.986,58.444L0,58.282Z" style="fill:rgb(20,71,20);fill-rule:nonzero;"/>
    </g>
    <g transform="matrix(0.805409,0.59272,0.59272,-0.805409,44.5527,72.9893)">
        <path d="M22.558,-6.547C22.558,-6.547 15.628,-2.612 8.379,12.719C1.13,28.05 2.797,54.044 22.558,70.636C14.874,54.926 14.265,38.462 17.804,25.639C21.343,12.816 21.757,5.51 22.558,-6.547" style="fill:rgb(58,163,58);fill-rule:nonzero;"/>
    </g>
    <g transform="matrix(1,0,0,1,53.4237,38.1253)">
        <path d="M0,84.332C0.676,76.627 1.851,69.008 3.345,61.443C4.858,53.886 6.735,46.395 9.142,39.071C10.325,35.403 11.684,31.792 13.178,28.24C14.66,24.683 16.341,21.207 18.227,17.848C21.948,11.116 26.665,4.848 32.604,-0.068C26.718,4.912 22.085,11.215 18.445,17.968C16.602,21.339 14.963,24.822 13.523,28.384C12.072,31.941 10.758,35.555 9.617,39.224C7.299,46.551 5.508,54.038 4.081,61.586C2.675,69.134 1.584,76.764 0.997,84.4L0,84.332Z" style="fill:rgb(20,71,20);fill-rule:nonzero;"/>
    </g>
    <g transform="matrix(0.617963,-0.786207,-0.786207,-0.617963,57.4768,91.9775)">
        <path d="M-22.98,-6.956C-22.98,-6.956 -13.232,-4.733 -7.993,7.926C-2.756,20.584 -9.265,40.901 -22.98,45.919C-18.175,35.541 -15.831,20.567 -20.105,13.496C-24.38,6.424 -24.857,-4.603 -22.98,-6.956" style="fill:rgb(28,94,28);fill-rule:nonzero;"/>
    </g>
    <g transform="matrix(1,0,0,1,50.9169,81.3518)">
        <path d="M0,48.708C-0.249,43.097 -1.258,37.457 -2.844,32.033C-4.441,26.605 -6.756,21.368 -9.917,16.668C-11.481,14.308 -13.338,12.148 -15.37,10.18C-16.366,9.17 -17.486,8.3 -18.581,7.401C-19.741,6.588 -20.881,5.741 -22.127,5.059C-23.323,4.292 -24.637,3.741 -25.907,3.111C-27.235,2.613 -28.533,2.021 -29.911,1.664C-32.616,0.773 -35.443,0.355 -38.265,0C-35.44,0.314 -32.601,0.691 -29.876,1.544C-28.487,1.883 -27.177,2.457 -25.834,2.938C-24.548,3.553 -23.218,4.088 -22.002,4.842C-20.736,5.511 -19.576,6.348 -18.395,7.151C-17.276,8.04 -16.133,8.903 -15.111,9.907C-13.031,11.865 -11.122,14.022 -9.505,16.384C-6.24,21.089 -3.821,26.352 -2.127,31.815C-0.442,37.289 0.659,42.925 1,48.683L0,48.708Z" style="fill:rgb(20,71,20);fill-rule:nonzero;"/>
    </g>
    <g transform="matrix(0.294374,0.95569,0.95569,-0.294374,74.2782,75.7146)">
        <path d="M30.149,-14.5C30.149,-14.5 20.4,-12.277 15.162,0.382C9.924,13.039 16.433,33.357 30.149,38.375C25.344,27.997 22.999,13.023 27.274,5.952C31.547,-1.12 32.026,-12.147 30.149,-14.5" style="fill:rgb(58,163,58);fill-rule:nonzero;"/>
    </g>
    <g transform="matrix(1,0,0,1,60.6991,89.5965)">
        <path d="M0,32.705C2.387,27.454 5.438,22.589 8.977,18.085C12.521,13.596 16.667,9.552 21.404,6.334C23.762,4.71 26.318,3.382 28.963,2.303C30.276,1.732 31.654,1.338 33.017,0.909C34.408,0.584 35.792,0.22 37.213,0.05C38.618,-0.217 40.053,-0.239 41.473,-0.351C42.898,-0.317 44.328,-0.382 45.745,-0.2C48.596,-0.018 51.381,0.65 54.129,1.372C51.369,0.69 48.58,0.064 45.735,-0.075C44.321,-0.236 42.897,-0.15 41.479,-0.163C40.067,-0.031 38.644,0.011 37.251,0.297C35.844,0.486 34.476,0.868 33.102,1.21C31.757,1.655 30.398,2.065 29.106,2.649C26.503,3.757 23.995,5.106 21.687,6.747C17.049,9.998 13.008,14.055 9.567,18.546C6.14,23.038 3.172,27.94 0.925,33.087L0,32.705Z" style="fill:rgb(20,71,20);fill-rule:nonzero;"/>
    </g>
    <g transform="matrix(0.71618,-0.697915,-0.697915,-0.71618,60.1504,66.2688)">
        <path d="M-24.802,-8.687C-24.802,-8.687 -28.264,-1.922 -23.969,11.082C-19.674,24.086 -11.648,44.378 -24.802,60.735C-8.498,48.451 -3.998,32.273 -6.535,18.226C-9.07,4.179 -19.78,-5.971 -24.802,-8.687" style="fill:rgb(28,94,28);fill-rule:nonzero;"/>
    </g>
    <g transform="matrix(1,0,0,1,53.4169,46.0234)">
        <path d="M0,81.908C0.052,74.273 -0.555,66.594 -1.609,59.008C-2.692,51.422 -4.271,43.89 -6.62,36.591C-7.774,32.936 -9.14,29.346 -10.748,25.866C-12.345,22.385 -14.149,18.986 -16.303,15.812C-18.45,12.642 -20.813,9.593 -23.585,6.933C-26.345,4.268 -29.408,1.92 -32.728,-0.02C-29.388,1.884 -26.294,4.201 -23.498,6.843C-20.69,9.48 -18.285,12.513 -16.096,15.672C-13.898,18.835 -12.05,22.229 -10.407,25.708C-8.755,29.186 -7.345,32.778 -6.145,36.436C-3.705,43.743 -2.038,51.29 -0.867,58.899C0.274,66.518 0.969,74.194 1,81.928L0,81.908Z" style="fill:rgb(20,71,20);fill-rule:nonzero;"/>
    </g>
    <g transform="matrix(0.951542,0.30752,0.30752,-0.951542,42.2315,79.4544)">
        <path d="M13.379,-0.683C13.379,-0.683 -3.485,20.599 -6.349,43.554C-9.215,66.511 2.933,81.296 13.379,87.825C5.357,69.118 5.771,46.659 8.877,34.087C11.983,21.515 14.442,9.206 13.379,-0.683" style="fill:rgb(28,94,28);fill-rule:nonzero;"/>
    </g>
    <g transform="matrix(1,0,0,1,56.1922,12.3643)">
        <path d="M0,109.612C-0.86,100.318 -1.357,91.014 -1.621,81.696C-1.855,72.381 -1.839,63.055 -1.375,53.746C-1.159,49.091 -0.807,44.443 -0.318,39.809C0.156,35.174 0.805,30.554 1.684,25.978C2.566,21.405 3.638,16.857 5.157,12.448C6.689,8.057 8.617,3.753 11.392,0C8.65,3.777 6.766,8.091 5.275,12.488C3.799,16.903 2.77,21.451 1.93,26.024C1.093,30.599 0.487,35.216 0.055,39.846C-0.392,44.477 -0.702,49.12 -0.876,53.769C-1.256,63.065 -1.188,72.376 -0.871,81.673C-0.526,90.967 0.056,100.265 0.994,109.508L0,109.612Z" style="fill:rgb(20,71,20);fill-rule:nonzero;"/>
    </g>
    <g transform="matrix(0.145261,0.989393,0.989393,-0.145261,82.0074,119.022)">
        <path d="M0.223,-62.008L62.635,-62.008L70.576,-7.921L10.682,9.228L0.223,-62.008Z" style="fill:rgb(209,129,51);fill-rule:nonzero;"/>
    </g>
    <g transform="matrix(1,0,0,1,91.3104,179.698)">
        <path d="M0,-41.146L1.379,-51.448L-70.621,-51.448L-61.555,10.302L-49.528,10.302C-50.663,-19.301 -34.348,-48.972 0,-41.146" style="fill:rgb(196,108,35);fill-rule:nonzero;"/>
    </g>
    <g transform="matrix(1,0,0,1,91.3563,119)">
        <path d="M0,14L-69.334,14C-73.184,14 -76.334,10.85 -76.334,7C-76.334,3.15 -73.184,0 -69.334,0L0,0C3.85,0 7,3.15 7,7C7,10.85 3.85,14 0,14" style="fill:rgb(209,129,51);fill-rule:nonzero;"/>
    </g>
</svg>
