<?xml version="1.0" encoding="UTF-8" standalone="no"?>
<!DOCTYPE svg PUBLIC "-//W3C//DTD SVG 1.1//EN" "http://www.w3.org/Graphics/SVG/1.1/DTD/svg11.dtd">
<svg width="100%" height="100%" viewBox="0 0 128 192" version="1.1" xmlns="http://www.w3.org/2000/svg" xmlns:xlink="http://www.w3.org/1999/xlink" xml:space="preserve" xmlns:serif="http://www.serif.com/" style="fill-rule:evenodd;clip-rule:evenodd;stroke-linejoin:round;stroke-miterlimit:2;">
    <g transform="matrix(1,0,0,1,61.7023,81.6486)">
        <path d="M0,20.128C0,20.128 -10.608,16.361 -8.182,7.756C-5.754,-0.849 0.656,-0.371 7.275,1.691C13.895,3.753 20.808,3.996 21.414,3.753C15.471,16.126 16.199,19.279 8.193,20.128C0.187,20.977 0,20.128 0,20.128" style="fill:rgb(92,170,46);fill-rule:nonzero;"/>
    </g>
    <g transform="matrix(0.777085,-0.629396,-0.629396,-0.777085,68.4889,30.8653)">
        <path d="M-15.377,-3.876C-15.377,-3.876 -20.834,2.105 -22.523,17.364C-24.211,32.625 -16.232,42.863 -15.377,46.23C-7.55,40.67 4.138,31.203 -1.761,14.285C-7.66,-2.634 -15.377,-3.876 -15.377,-3.876" style="fill:rgb(92,170,46);fill-rule:nonzero;"/>
    </g>
    <g transform="matrix(1,0,0,1,59.7092,7.19305)">
        <path d="M0,33.376C-0.087,32.579 -0.391,31.633 -0.702,30.779C-1.034,29.91 -1.409,29.05 -1.838,28.213C-2.685,26.534 -3.656,24.909 -4.709,23.335C-6.815,20.186 -9.217,17.229 -11.733,14.379C-14.262,11.538 -16.933,8.819 -19.804,6.322C-21.238,5.072 -22.724,3.878 -24.287,2.793C-25.852,1.718 -27.471,0.683 -29.253,0C-27.456,0.646 -25.811,1.649 -24.221,2.695C-22.63,3.751 -21.115,4.917 -19.65,6.141C-16.718,8.587 -13.979,11.26 -11.382,14.059C-8.785,16.858 -6.289,19.766 -4.074,22.899C-2.966,24.465 -1.935,26.09 -1.021,27.792C-0.131,29.524 0.72,31.215 1.066,33.312L0,33.376Z" style="fill:rgb(80,104,21);fill-rule:nonzero;"/>
    </g>
    <g transform="matrix(1,0,0,1,35.3815,14.2753)">
        <path d="M0,-9.444C1.044,-8.435 1.819,-7.174 2.443,-5.864C3.044,-4.539 3.475,-3.137 3.744,-1.707L3.782,-1.508L3.583,-1.554C2.886,-1.716 2.137,-1.672 1.409,-1.588C0.678,-1.5 -0.051,-1.364 -0.773,-1.203C-2.218,-0.873 -3.649,-0.466 -5.062,0C-3.681,-0.555 -2.267,-1.032 -0.82,-1.398C-0.099,-1.59 0.637,-1.729 1.38,-1.827C2.123,-1.919 2.884,-1.978 3.646,-1.811L3.484,-1.659C3.343,-2.363 3.194,-3.066 2.983,-3.753C2.788,-4.445 2.521,-5.113 2.251,-5.778C1.965,-6.437 1.642,-7.081 1.268,-7.695C0.899,-8.313 0.493,-8.914 0,-9.444" style="fill:rgb(80,104,21);fill-rule:nonzero;"/>
    </g>
    <g transform="matrix(1,0,0,1,41.3308,19.2726)">
        <path d="M0,-12.955C0.918,-12.498 1.575,-11.644 2.063,-10.758C2.529,-9.849 2.861,-8.868 3.04,-7.863C3.155,-7.365 3.19,-6.854 3.269,-6.35C3.297,-5.841 3.346,-5.331 3.357,-4.822C3.375,-3.802 3.333,-2.784 3.248,-1.767L3.235,-1.621L3.086,-1.653C2.03,-1.884 0.959,-2.083 -0.127,-2.112C-1.21,-2.174 -2.299,-2.115 -3.375,-1.962C-4.452,-1.817 -5.515,-1.572 -6.552,-1.241C-7.592,-0.921 -8.611,-0.52 -9.572,0C-7.685,-1.101 -5.568,-1.814 -3.4,-2.134C-2.316,-2.303 -1.216,-2.377 -0.118,-2.33C0.982,-2.315 2.071,-2.127 3.148,-1.906L2.988,-1.792L3.095,-3.304C3.124,-3.808 3.117,-4.313 3.129,-4.818C3.126,-5.323 3.085,-5.826 3.066,-6.33C2.996,-6.83 2.968,-7.336 2.862,-7.829C2.701,-8.825 2.388,-9.794 1.944,-10.696C1.501,-11.587 0.895,-12.458 0,-12.955" style="fill:rgb(80,104,21);fill-rule:nonzero;"/>
    </g>
    <g transform="matrix(1,0,0,1,48.6584,25.158)">
        <path d="M0,-16.172C1.267,-14.149 1.854,-11.749 1.959,-9.37C1.98,-8.177 1.945,-6.974 1.718,-5.798C1.53,-4.616 1.194,-3.464 0.798,-2.336L0.758,-2.222L0.64,-2.256C-0.494,-2.582 -1.714,-2.56 -2.902,-2.475C-4.096,-2.378 -5.282,-2.18 -6.458,-1.933C-8.806,-1.423 -11.125,-0.768 -13.407,0C-11.158,-0.86 -8.851,-1.582 -6.495,-2.104C-5.317,-2.365 -4.126,-2.579 -2.921,-2.692C-1.719,-2.791 -0.484,-2.834 0.713,-2.506L0.554,-2.427C0.725,-2.992 0.94,-3.544 1.099,-4.112C1.23,-4.687 1.417,-5.252 1.494,-5.838C1.734,-6.996 1.784,-8.184 1.778,-9.363C1.749,-10.546 1.577,-11.723 1.286,-12.869C1.002,-14.016 0.601,-15.145 0,-16.172" style="fill:rgb(80,104,21);fill-rule:nonzero;"/>
    </g>
    <g transform="matrix(1,0,0,1,56.0158,31.3649)">
        <path d="M0,-15.725C0.122,-13.41 0.11,-11.086 -0.069,-8.771C-0.15,-7.613 -0.288,-6.458 -0.494,-5.312C-0.711,-4.172 -0.967,-3.017 -1.537,-1.969L-1.584,-1.882L-1.684,-1.906C-2.699,-2.146 -3.786,-2.101 -4.843,-2.002C-5.905,-1.896 -6.964,-1.732 -8.014,-1.524C-10.112,-1.098 -12.196,-0.587 -14.26,0C-12.225,-0.68 -10.153,-1.258 -8.049,-1.695C-6.997,-1.918 -5.936,-2.097 -4.864,-2.218C-3.796,-2.331 -2.702,-2.398 -1.618,-2.158L-1.765,-2.096C-1.229,-3.097 -0.94,-4.228 -0.718,-5.355C-0.498,-6.486 -0.346,-7.634 -0.249,-8.786C-0.059,-11.091 0.013,-13.408 0,-15.725" style="fill:rgb(80,104,21);fill-rule:nonzero;"/>
    </g>
    <g transform="matrix(0.665466,0.746428,0.746428,-0.665466,58.7171,59.2058)">
        <path d="M14.498,-4.694C14.498,-4.694 -0.935,2.056 0.94,12.908C2.815,23.76 13.67,27.733 14.498,35.77C23.593,25.467 23.791,22.099 23.071,15.585C22.352,9.071 14.498,-4.694 14.498,-4.694" style="fill:rgb(28,94,28);fill-rule:nonzero;"/>
    </g>
    <g transform="matrix(0.911371,-0.411586,-0.411586,-0.911371,65.6055,69.4301)">
        <path d="M-10.319,-3.216C-10.319,-3.216 -24.31,1.906 -26.007,18.043C-27.702,34.181 -14.106,41.298 -10.319,47.034C-1.076,38.327 4.09,26.018 1.792,15.001C-0.505,3.984 -9.186,-2.33 -10.319,-3.216" style="fill:rgb(28,94,28);fill-rule:nonzero;"/>
    </g>
    <g transform="matrix(1,0,0,1,57.0744,34.3494)">
        <path d="M0,41.787C-0.907,41.155 -1.52,40.46 -2.178,39.724C-2.816,38.992 -3.393,38.218 -3.945,37.431C-5.045,35.853 -6.017,34.202 -6.929,32.523C-8.727,29.15 -10.239,25.647 -11.616,22.1C-12.995,18.553 -14.214,14.941 -15.172,11.258C-15.648,9.416 -16.066,7.558 -16.358,5.679C-16.644,3.802 -16.874,1.899 -16.757,0C-16.836,1.9 -16.569,3.794 -16.247,5.66C-15.918,7.529 -15.464,9.373 -14.954,11.199C-13.926,14.851 -12.641,18.426 -11.196,21.932C-9.743,25.433 -8.144,28.877 -6.284,32.166C-5.341,33.802 -4.341,35.404 -3.229,36.916C-2.672,37.669 -2.092,38.407 -1.464,39.091C-0.851,39.758 -0.148,40.461 0.518,40.9L0,41.787Z" style="fill:rgb(80,104,21);fill-rule:nonzero;"/>
    </g>
    <g transform="matrix(1,0,0,1,36.5353,44.0082)">
        <path d="M0,-6.132C0.258,-5.474 0.606,-4.858 0.984,-4.265C1.354,-3.667 1.765,-3.095 2.209,-2.552C2.664,-2.016 3.132,-1.491 3.649,-1.016C4.153,-0.527 4.704,-0.091 5.252,0.346L5.052,0.426C5.187,-0.314 5.513,-0.977 5.857,-1.615C6.208,-2.252 6.599,-2.863 7.019,-3.453C7.847,-4.641 8.773,-5.754 9.762,-6.807C8.845,-5.692 7.972,-4.543 7.157,-3.358C6.751,-2.764 6.375,-2.15 6.042,-1.517C5.714,-0.884 5.411,-0.223 5.3,0.466L5.267,0.675L5.1,0.546C3.975,-0.324 2.96,-1.334 2.075,-2.443C1.2,-3.558 0.443,-4.785 0,-6.132" style="fill:rgb(80,104,21);fill-rule:nonzero;"/>
    </g>
    <g transform="matrix(1,0,0,1,33.6208,50.3988)">
        <path d="M0,-8.486C0.41,-7.353 1.028,-6.309 1.731,-5.341C2.43,-4.369 3.229,-3.468 4.119,-2.667C5.024,-1.886 5.969,-1.142 7.014,-0.555C7.515,-0.226 8.069,0.009 8.595,0.29C9.134,0.549 9.698,0.754 10.243,1L10.075,1.097C10.278,0.046 10.513,-1.002 10.892,-2.005C11.24,-3.017 11.705,-3.986 12.231,-4.915C13.284,-6.772 14.663,-8.457 16.334,-9.777C15.519,-9.092 14.798,-8.304 14.144,-7.47C13.484,-6.641 12.882,-5.763 12.376,-4.832C11.867,-3.905 11.419,-2.94 11.088,-1.935C10.727,-0.94 10.509,0.098 10.322,1.137L10.294,1.291L10.154,1.235C9.031,0.783 7.93,0.271 6.902,-0.368C5.853,-0.975 4.906,-1.739 4.002,-2.539C2.24,-4.183 0.76,-6.192 0,-8.486" style="fill:rgb(80,104,21);fill-rule:nonzero;"/>
    </g>
    <g transform="matrix(1,0,0,1,32.7922,54.4862)">
        <path d="M0,-4.317C0.864,-3.271 1.835,-2.32 2.858,-1.436C3.876,-0.546 4.958,0.273 6.109,0.981C7.256,1.692 8.471,2.298 9.741,2.748C11.008,3.21 12.335,3.486 13.672,3.609L13.538,3.72C13.695,2.528 14.167,1.427 14.682,0.373C15.211,-0.679 15.823,-1.684 16.474,-2.659C17.775,-4.612 19.241,-6.45 20.813,-8.186C19.312,-6.389 17.902,-4.517 16.613,-2.567C15.977,-1.588 15.381,-0.582 14.869,0.465C14.372,1.513 13.923,2.607 13.786,3.748L13.772,3.869L13.652,3.859C10.915,3.632 8.309,2.582 6.017,1.128C3.718,-0.331 1.673,-2.182 0,-4.317" style="fill:rgb(80,104,21);fill-rule:nonzero;"/>
    </g>
    <g transform="matrix(1,0,0,1,38.031,59.2928)">
        <path d="M0,2.058C1.918,3.035 3.872,3.94 5.867,4.737C6.867,5.128 7.881,5.483 8.917,5.759C9.947,6.03 11.013,6.245 12.061,6.174L11.948,6.281C12.161,5.134 12.749,4.145 13.345,3.198C13.957,2.252 14.636,1.358 15.341,0.487C16.752,-1.256 18.288,-2.894 19.898,-4.449C18.354,-2.828 16.871,-1.15 15.472,0.592C14.78,1.468 14.115,2.367 13.522,3.309C12.942,4.25 12.378,5.246 12.196,6.316L12.178,6.416L12.083,6.423C10.973,6.507 9.899,6.251 8.859,5.97C7.817,5.676 6.801,5.304 5.803,4.898C3.803,4.087 1.869,3.129 0,2.058" style="fill:rgb(80,104,21);fill-rule:nonzero;"/>
    </g>
    <g transform="matrix(1,0,0,1,69.6857,84.2129)">
        <path d="M0,7.903C0,7.903 4.213,-4.484 20.193,-7.787C31.605,-10.146 44.573,-10.061 48.485,-6.604C52.397,-3.147 54.125,3.858 55.945,4.039C53.943,6.041 51.578,7.496 45.21,12.136C38.843,16.776 24.742,18.049 16.646,16.411C8.549,14.774 0,7.903 0,7.903" style="fill:rgb(28,94,28);fill-rule:nonzero;"/>
    </g>
    <g transform="matrix(1,0,0,1,57.5236,98.0166)">
        <path d="M0,1.698C0.073,1.203 -4.973,-11.281 -17.345,-14.677C-29.717,-18.073 -42.089,-12.615 -44.758,-6.49C-47.426,-0.364 -47.184,2.668 -50.458,4.003C-44.394,5.337 -44.879,9.097 -35.054,12.13C-25.229,15.162 -2.669,19.771 0,1.698" style="fill:rgb(28,94,28);fill-rule:nonzero;"/>
    </g>
    <g transform="matrix(0.264213,-0.964464,-0.964464,-0.264213,46.6749,28.6884)">
        <path d="M-31.701,-19.053C-31.701,-19.053 -16.688,-2.238 -14.375,12.733C-12.062,27.703 -23.185,36.856 -31.701,39.71C-30.659,35.563 -32.552,30.422 -36.124,21.426C-39.697,12.43 -42.706,-12.163 -31.701,-19.053" style="fill:rgb(52,122,52);fill-rule:nonzero;"/>
    </g>
    <g transform="matrix(0.256491,0.966547,0.966547,-0.256491,79.8528,17.7129)">
        <path d="M32.814,-18.005C32.814,-18.005 18.07,-9.011 18.55,11.945C19.028,32.901 27.376,39.533 32.814,40.161C33.301,34.195 36.883,28.539 38.841,17.478C40.801,6.416 36.188,-12.03 32.814,-18.005" style="fill:rgb(56,140,56);fill-rule:nonzero;"/>
    </g>
    <g transform="matrix(1,0,0,1,57.5246,33.6017)">
        <path d="M0,97.043C0,97.043 6.111,85.485 3.54,58.514C0.97,31.544 -0.036,9.09 3.195,-2.79C3.152,11.894 2.485,14.199 2.971,21.901C3.456,29.603 5.578,52.771 6.913,62.838C8.247,72.905 6.307,91.706 4.244,97.892C0.727,99.833 0,97.043 0,97.043" style="fill:rgb(80,104,21);fill-rule:nonzero;"/>
    </g>
    <g transform="matrix(1,0,0,1,60.3342,-0.474746)">
        <path d="M0,41.119C0,41.119 -7.156,41.119 -10.553,34.327C-13.949,27.534 -9.34,11.402 -0.849,5.701C7.642,0 12.979,0.485 12.979,0.485C12.979,0.485 22.439,8.601 20.499,20.797C18.559,32.992 9.946,40.027 0,41.119" style="fill:rgb(56,140,56);fill-rule:nonzero;"/>
    </g>
    <g transform="matrix(1,0,0,1,61.0646,70.4528)">
        <path d="M0,10.522C0,10.522 -7.668,12.159 -8.667,6.337C-9.666,0.515 5.98,-1.85 13.44,-1.486C20.899,-1.123 22.355,-0.176 24.539,8.63C20.899,6.155 18.898,4.518 14.714,7.065C10.529,9.612 7.67,12.372 0,10.522" style="fill:rgb(56,140,56);fill-rule:nonzero;"/>
    </g>
    <g transform="matrix(1,0,0,1,59.1896,38.6442)">
        <path d="M0,25.15C1.973,22.782 4.152,20.756 6.457,18.826C8.752,16.899 11.191,15.155 13.708,13.546C16.209,11.905 18.853,10.504 21.509,9.149C22.869,8.534 24.208,7.874 25.585,7.303C26.976,6.766 28.333,6.142 29.75,5.676C35.366,3.683 41.103,2.098 46.923,0.875C49.838,0.296 52.774,-0.187 55.733,-0.465C58.688,-0.718 61.683,-0.883 64.621,-0.426C61.676,-0.823 58.692,-0.597 55.752,-0.284C52.808,0.053 49.891,0.595 46.998,1.23C41.23,2.566 35.531,4.268 30.005,6.358C28.61,6.848 27.277,7.494 25.912,8.054C24.561,8.647 23.249,9.327 21.917,9.962C19.318,11.357 16.737,12.791 14.306,14.459C11.858,16.096 9.494,17.86 7.282,19.796C5.075,21.715 2.938,23.802 1.156,26.033L0,25.15Z" style="fill:rgb(80,104,21);fill-rule:nonzero;"/>
    </g>
    <g transform="matrix(1,0,0,1,117.383,43.2366)">
        <path d="M0,-9.567C-0.788,-9.521 -1.513,-9.171 -2.185,-8.791C-2.86,-8.409 -3.5,-7.961 -4.094,-7.457C-4.692,-6.959 -5.268,-6.433 -5.814,-5.878C-6.362,-5.322 -6.874,-4.733 -7.39,-4.147L-7.479,-4.437C-6.058,-4.023 -4.736,-3.365 -3.498,-2.594C-2.26,-1.822 -1.09,-0.947 0,0.016C-1.169,-0.848 -2.389,-1.636 -3.638,-2.36C-4.896,-3.065 -6.192,-3.72 -7.572,-4.089L-7.85,-4.164L-7.663,-4.38C-7.147,-4.977 -6.61,-5.556 -6.051,-6.114C-5.484,-6.664 -4.906,-7.205 -4.272,-7.681C-3.646,-8.166 -2.976,-8.594 -2.27,-8.953C-1.558,-9.287 -0.793,-9.583 0,-9.567" style="fill:rgb(80,104,21);fill-rule:nonzero;"/>
    </g>
    <g transform="matrix(1,0,0,1,109.857,46.2238)">
        <path d="M0,-13.646C-1.826,-12.436 -3.534,-11.063 -5.167,-9.615C-5.976,-8.881 -6.781,-8.145 -7.54,-7.361C-8.313,-6.59 -9.032,-5.769 -9.751,-4.95L-9.841,-5.24C-8.852,-4.962 -7.912,-4.577 -6.98,-4.179C-6.05,-3.778 -5.13,-3.354 -4.229,-2.896C-2.417,-1.997 -0.645,-1.023 1.098,0C-0.705,-0.912 -2.521,-1.796 -4.347,-2.65C-6.18,-3.479 -8.015,-4.354 -9.934,-4.893L-10.208,-4.97L-10.024,-5.183C-8.588,-6.848 -7.029,-8.408 -5.354,-9.831C-3.679,-11.249 -1.901,-12.554 0,-13.646" style="fill:rgb(80,104,21);fill-rule:nonzero;"/>
    </g>
    <g transform="matrix(1,0,0,1,99.3098,51.1021)">
        <path d="M0,-18.221C-1.127,-17.708 -2.153,-17.001 -3.096,-16.212C-4.042,-15.427 -4.898,-14.534 -5.633,-13.552C-7.122,-11.6 -8.121,-9.303 -8.626,-6.905L-8.763,-7.118C-6.626,-6.607 -4.625,-5.643 -2.844,-4.393C-1.059,-3.146 0.559,-1.668 1.94,0C0.465,-1.583 -1.207,-2.974 -2.996,-4.168C-3.893,-4.763 -4.837,-5.28 -5.807,-5.737C-6.779,-6.191 -7.803,-6.516 -8.84,-6.767L-9.014,-6.809L-8.978,-6.98C-8.454,-9.421 -7.414,-11.768 -5.859,-13.727C-4.308,-15.678 -2.297,-17.284 0,-18.221" style="fill:rgb(80,104,21);fill-rule:nonzero;"/>
    </g>
    <g transform="matrix(1,0,0,1,87.5422,53.6231)">
        <path d="M0,-16.618C-0.898,-15.851 -1.74,-15.02 -2.54,-14.156C-3.347,-13.298 -4.107,-12.397 -4.79,-11.442C-6.14,-9.555 -7.318,-7.392 -7.347,-5.066L-7.482,-5.24C-5.858,-4.801 -4.315,-4.101 -2.916,-3.189C-1.512,-2.287 -0.219,-1.217 0.911,0C-0.307,-1.126 -1.649,-2.107 -3.06,-2.957C-4.474,-3.8 -5.98,-4.493 -7.569,-4.891L-7.707,-4.926L-7.705,-5.066C-7.696,-6.284 -7.362,-7.47 -6.868,-8.556C-6.377,-9.649 -5.74,-10.666 -5.021,-11.612C-3.579,-13.505 -1.868,-15.171 0,-16.618" style="fill:rgb(80,104,21);fill-rule:nonzero;"/>
    </g>
    <g transform="matrix(1,0,0,1,63.3225,86.1752)">
        <path d="M0,11.137C1.675,8.7 3.909,7.279 6.223,5.958C8.552,4.694 11.002,3.698 13.51,2.927C18.521,1.358 23.713,0.573 28.892,0.07C34.072,-0.427 39.28,-0.676 44.482,-0.535C47.082,-0.466 49.683,-0.3 52.261,0.043C54.832,0.394 57.418,0.834 59.853,1.753C57.401,0.884 54.813,0.499 52.242,0.2C49.664,-0.089 47.069,-0.202 44.477,-0.218C39.29,-0.253 34.107,0.1 28.958,0.7C23.822,1.324 18.702,2.243 13.829,3.906C11.393,4.723 9.033,5.758 6.83,7.027C5.718,7.647 4.692,8.392 3.706,9.168C3.237,9.582 2.765,9.991 2.345,10.442C1.935,10.873 1.5,11.391 1.26,11.813L0,11.137Z" style="fill:rgb(80,104,21);fill-rule:nonzero;"/>
    </g>
    <g transform="matrix(1,0,0,1,117.855,91.2618)">
        <path d="M0,-8.972C-0.769,-9.087 -1.537,-8.9 -2.262,-8.674C-2.992,-8.446 -3.701,-8.149 -4.377,-7.787C-5.056,-7.433 -5.719,-7.046 -6.36,-6.625C-7.002,-6.204 -7.617,-5.744 -8.234,-5.287L-8.263,-5.585C-6.973,-4.905 -5.824,-4.012 -4.778,-3.026C-3.731,-2.039 -2.771,-0.967 -1.906,0.175C-2.867,-0.886 -3.892,-1.885 -4.957,-2.828C-6.035,-3.754 -7.16,-4.64 -8.421,-5.269L-8.676,-5.397L-8.449,-5.568C-7.829,-6.035 -7.192,-6.481 -6.538,-6.901C-5.879,-7.313 -5.21,-7.713 -4.501,-8.039C-3.799,-8.376 -3.063,-8.647 -2.311,-8.847C-1.557,-9.021 -0.76,-9.147 0,-8.972" style="fill:rgb(80,104,21);fill-rule:nonzero;"/>
    </g>
    <g transform="matrix(1,0,0,1,110.784,92.9772)">
        <path d="M0,-13.248C-2.005,-12.462 -3.932,-11.497 -5.801,-10.444C-7.671,-9.391 -9.468,-8.212 -11.173,-6.913L-11.201,-7.21C-10.299,-6.747 -9.467,-6.19 -8.644,-5.623C-7.823,-5.052 -7.018,-4.462 -6.235,-3.842C-4.659,-2.619 -3.136,-1.33 -1.651,0C-3.216,-1.235 -4.798,-2.445 -6.396,-3.629C-8.007,-4.79 -9.609,-5.994 -11.358,-6.895L-11.61,-7.025L-11.387,-7.193C-7.932,-9.785 -4.103,-11.915 0,-13.248" style="fill:rgb(80,104,21);fill-rule:nonzero;"/>
    </g>
    <g transform="matrix(1,0,0,1,100.512,95.6758)">
        <path d="M0,-17.785C-1.186,-17.524 -2.315,-17.06 -3.382,-16.498C-4.453,-15.943 -5.459,-15.265 -6.367,-14.477C-8.201,-12.917 -9.634,-10.92 -10.604,-8.723L-10.693,-8.955C-9.721,-8.487 -8.78,-7.951 -7.921,-7.302C-7.065,-6.652 -6.242,-5.955 -5.513,-5.168C-4.03,-3.619 -2.756,-1.878 -1.744,0C-2.862,-1.815 -4.207,-3.482 -5.703,-4.981C-6.452,-5.73 -7.265,-6.412 -8.111,-7.042C-8.961,-7.672 -9.886,-8.185 -10.837,-8.633L-10.996,-8.708L-10.926,-8.866C-9.929,-11.102 -8.446,-13.139 -6.548,-14.692C-4.655,-16.24 -2.395,-17.358 0,-17.785" style="fill:rgb(80,104,21);fill-rule:nonzero;"/>
    </g>
    <g transform="matrix(1,0,0,1,88.298,95.4998)">
        <path d="M0,-16.046C-1.019,-15.497 -1.996,-14.876 -2.941,-14.213C-3.892,-13.559 -4.806,-12.854 -5.658,-12.081C-7.34,-10.554 -8.92,-8.726 -9.412,-6.501L-9.509,-6.696C-8.028,-5.951 -6.675,-4.975 -5.501,-3.822C-4.32,-2.678 -3.278,-1.394 -2.423,0C-3.381,-1.323 -4.487,-2.531 -5.684,-3.627C-6.886,-4.715 -8.206,-5.679 -9.661,-6.378L-9.787,-6.438L-9.758,-6.573C-9.505,-7.74 -8.941,-8.809 -8.244,-9.748C-7.548,-10.693 -6.729,-11.536 -5.844,-12.292C-4.071,-13.806 -2.088,-15.046 0,-16.046" style="fill:rgb(80,104,21);fill-rule:nonzero;"/>
    </g>
    <g transform="matrix(1,0,0,1,63.7883,96.7062)">
        <path d="M0,7.524C-0.245,7.187 -0.672,6.771 -1.077,6.441C-1.487,6.09 -1.943,5.781 -2.401,5.478C-3.335,4.892 -4.323,4.372 -5.355,3.941C-7.413,3.061 -9.589,2.434 -11.794,1.937C-16.223,0.996 -20.775,0.639 -25.325,0.543C-29.88,0.459 -34.443,0.578 -38.981,1.009C-41.249,1.231 -43.513,1.518 -45.751,1.954C-47.984,2.396 -50.222,2.909 -52.326,3.801C-50.239,2.867 -48.006,2.31 -45.778,1.822C-43.543,1.342 -41.279,1.009 -39.01,0.743C-34.468,0.221 -29.893,0.012 -25.321,0.007C-20.749,0 -16.15,0.233 -11.618,1.079C-9.36,1.529 -7.116,2.112 -4.952,2.974C-3.868,3.395 -2.814,3.913 -1.801,4.515C-1.3,4.828 -0.801,5.149 -0.333,5.528C0.146,5.914 0.575,6.271 1.017,6.847L0,7.524Z" style="fill:rgb(80,104,21);fill-rule:nonzero;"/>
    </g>
    <g transform="matrix(1,0,0,1,13.8576,105.754)">
        <path d="M0,-10.891C1.693,-10.977 3.391,-10.683 5.022,-10.214C6.65,-9.724 8.214,-9.023 9.679,-8.157L9.901,-8.025L9.675,-7.896C8.951,-7.482 8.338,-6.869 7.765,-6.241C7.193,-5.606 6.664,-4.93 6.156,-4.237C5.146,-2.848 4.21,-1.4 3.335,0.086C4.116,-1.452 4.985,-2.948 5.969,-4.37C6.453,-5.087 6.986,-5.772 7.56,-6.424C8.139,-7.07 8.752,-7.704 9.527,-8.159L9.523,-7.898C8.796,-8.316 8.064,-8.728 7.296,-9.07C6.539,-9.434 5.744,-9.709 4.951,-9.985C4.153,-10.247 3.337,-10.456 2.51,-10.611C1.685,-10.771 0.846,-10.889 0,-10.891" style="fill:rgb(80,104,21);fill-rule:nonzero;"/>
    </g>
    <g transform="matrix(1,0,0,1,17.1931,108.241)">
        <path d="M0,-18.291C2.875,-18.437 5.75,-17.691 8.348,-16.466C9.633,-15.822 10.898,-15.112 12.032,-14.217C13.194,-13.362 14.243,-12.364 15.235,-11.318L15.362,-11.185L15.198,-11.088C14.111,-10.446 13.039,-9.769 12.069,-8.954C11.076,-8.169 10.177,-7.27 9.341,-6.32C8.5,-5.372 7.761,-4.336 7.097,-3.257C6.426,-2.182 5.832,-1.051 5.397,0.146C6.195,-2.274 7.536,-4.507 9.19,-6.45C10.021,-7.419 10.917,-8.339 11.911,-9.146C12.881,-9.982 13.958,-10.682 15.052,-11.348L15.015,-11.118C14.503,-11.613 14.031,-12.15 13.507,-12.632C12.965,-13.093 12.459,-13.601 11.875,-14.011C10.765,-14.91 9.523,-15.626 8.258,-16.28C6.98,-16.916 5.627,-17.396 4.243,-17.744C2.862,-18.098 1.435,-18.324 0,-18.291" style="fill:rgb(80,104,21);fill-rule:nonzero;"/>
    </g>
    <g transform="matrix(1,0,0,1,26.1691,109.964)">
        <path d="M0,-24.441C3.082,-23.529 6.018,-22.094 8.632,-20.204C11.237,-18.32 13.54,-15.909 14.96,-12.977L15.023,-12.847L14.894,-12.78C13.671,-12.149 12.627,-11.199 11.655,-10.211C10.689,-9.208 9.802,-8.127 8.962,-7.012C7.298,-4.769 5.771,-2.42 4.366,0C5.673,-2.475 7.14,-4.871 8.802,-7.131C9.632,-8.26 10.512,-9.358 11.475,-10.383C12.448,-11.393 13.49,-12.371 14.757,-13.045L14.691,-12.848C13.985,-14.274 13.105,-15.617 12.045,-16.812C10.996,-18.015 9.796,-19.087 8.51,-20.038C7.225,-20.992 5.85,-21.825 4.423,-22.554C3.001,-23.292 1.528,-23.945 0,-24.441" style="fill:rgb(80,104,21);fill-rule:nonzero;"/>
    </g>
    <g transform="matrix(1,0,0,1,40.9948,111.055)">
        <path d="M0,-24.562C1.985,-22.979 3.875,-21.274 5.628,-19.432C6.506,-18.512 7.354,-17.56 8.125,-16.542C8.88,-15.521 9.624,-14.451 9.999,-13.192L10.032,-13.081L9.926,-13.02C8.805,-12.372 7.917,-11.337 7.1,-10.304C6.285,-9.256 5.548,-8.144 4.848,-7.012C3.465,-4.735 2.189,-2.39 1.003,0C2.089,-2.438 3.299,-4.825 4.678,-7.115C5.367,-8.261 6.093,-9.387 6.904,-10.456C7.721,-11.511 8.591,-12.569 9.784,-13.282L9.712,-13.111C9.35,-14.293 8.656,-15.372 7.916,-16.387C7.168,-17.403 6.339,-18.363 5.478,-19.29C3.743,-21.133 1.903,-22.883 0,-24.562" style="fill:rgb(80,104,21);fill-rule:nonzero;"/>
    </g>
    <g transform="matrix(1,0,0,1,59.51,47.1765)">
        <path d="M0,20.268C-7.752,14.231 -16.365,9.24 -25.583,5.734C-34.787,2.236 -44.646,0.249 -54.556,0.481C-44.655,0 -34.694,1.741 -25.327,5.035C-15.946,8.336 -7.112,13.159 0.9,19.082L0,20.268Z" style="fill:rgb(80,104,21);fill-rule:nonzero;"/>
    </g>
    <g transform="matrix(1,0,0,1,11.2961,52.9842)">
        <path d="M0,-10.151C0.804,-10.164 1.573,-9.836 2.281,-9.474C2.984,-9.086 3.645,-8.623 4.262,-8.111C5.495,-7.083 6.567,-5.882 7.569,-4.639L7.741,-4.426L7.476,-4.349C6.097,-3.951 4.814,-3.249 3.573,-2.501C2.342,-1.731 1.144,-0.896 0,0.013C1.06,-0.994 2.204,-1.916 3.423,-2.734C4.642,-3.551 5.951,-4.256 7.375,-4.702L7.281,-4.412C6.779,-5.023 6.284,-5.639 5.75,-6.222C5.218,-6.806 4.654,-7.359 4.07,-7.888C3.486,-8.418 2.859,-8.901 2.188,-9.311C1.522,-9.717 0.799,-10.101 0,-10.151" style="fill:rgb(80,104,21);fill-rule:nonzero;"/>
    </g>
    <g transform="matrix(1,0,0,1,18.7214,56.149)">
        <path d="M0,-14.474C1.9,-13.298 3.661,-11.901 5.316,-10.395C6.967,-8.883 8.497,-7.236 9.898,-5.488L10.068,-5.276L9.805,-5.197C7.899,-4.62 6.089,-3.69 4.281,-2.811C2.48,-1.904 0.691,-0.966 -1.083,0C0.626,-1.078 2.368,-2.106 4.153,-3.058C5.041,-3.543 5.948,-3.993 6.868,-4.42C7.789,-4.843 8.718,-5.253 9.704,-5.55L9.61,-5.26C8.908,-6.12 8.206,-6.983 7.448,-7.797C6.706,-8.624 5.912,-9.404 5.116,-10.182C4.32,-10.958 3.487,-11.699 2.634,-12.414C1.786,-13.137 0.917,-13.836 0,-14.474" style="fill:rgb(80,104,21);fill-rule:nonzero;"/>
    </g>
    <g transform="matrix(1,0,0,1,29.1267,61.3238)">
        <path d="M0,-19.327C1.174,-18.82 2.251,-18.101 3.236,-17.28C4.208,-16.442 5.104,-15.505 5.852,-14.456C6.591,-13.405 7.254,-12.287 7.728,-11.087C8.244,-9.905 8.585,-8.657 8.864,-7.4L8.901,-7.23L8.726,-7.185C7.683,-6.917 6.661,-6.557 5.692,-6.073C4.728,-5.581 3.796,-5.022 2.911,-4.391C1.151,-3.119 -0.482,-1.651 -1.915,0C-0.581,-1.734 0.993,-3.289 2.747,-4.616C4.499,-5.942 6.487,-6.992 8.641,-7.543L8.503,-7.329C8.222,-8.561 7.912,-9.792 7.412,-10.956C6.963,-12.141 6.306,-13.232 5.613,-14.286C4.906,-15.338 4.05,-16.285 3.113,-17.139C2.179,-17.996 1.147,-18.764 0,-19.327" style="fill:rgb(80,104,21);fill-rule:nonzero;"/>
    </g>
    <g transform="matrix(1,0,0,1,40.7365,63.9968)">
        <path d="M0,-17.626C1.882,-16.056 3.587,-14.258 5.007,-12.241C5.718,-11.234 6.334,-10.153 6.809,-9.006C7.283,-7.863 7.601,-6.632 7.608,-5.373L7.609,-5.232L7.473,-5.195C5.881,-4.767 4.386,-4.017 2.991,-3.121C1.603,-2.214 0.287,-1.177 -0.899,0C0.193,-1.267 1.455,-2.393 2.836,-3.353C4.213,-4.319 5.746,-5.078 7.377,-5.55L7.241,-5.373C7.219,-7.788 6.094,-10.064 4.765,-12.076C4.095,-13.093 3.341,-14.056 2.539,-14.978C1.744,-15.905 0.903,-16.797 0,-17.626" style="fill:rgb(80,104,21);fill-rule:nonzero;"/>
    </g>
    <g transform="matrix(1,0,0,1,59.2766,3.51925)">
        <path d="M0,42.06C-0.237,40.98 -0.216,40.054 -0.199,39.067C-0.17,38.096 -0.068,37.136 0.061,36.184C0.323,34.278 0.73,32.406 1.2,30.554C2.169,26.857 3.436,23.257 4.833,19.718C6.228,16.177 7.784,12.698 9.581,9.343C10.481,7.667 11.436,6.019 12.497,4.44C13.562,2.869 14.684,1.315 16.059,0C14.711,1.342 13.622,2.914 12.592,4.502C11.564,6.098 10.646,7.76 9.781,9.448C8.057,12.827 6.574,16.325 5.255,19.88C3.945,23.437 2.783,27.052 1.916,30.73C1.498,32.571 1.146,34.426 0.936,36.291C0.833,37.223 0.759,38.158 0.755,39.086C0.752,39.993 0.791,40.985 0.981,41.76L0,42.06Z" style="fill:rgb(80,104,21);fill-rule:nonzero;"/>
    </g>
    <g transform="matrix(1,0,0,1,70.1643,12.1147)">
        <path d="M0,-8.573C-0.257,-7.915 -0.42,-7.226 -0.545,-6.534C-0.68,-5.844 -0.766,-5.145 -0.808,-4.444C-0.838,-3.742 -0.851,-3.039 -0.793,-2.339C-0.755,-1.637 -0.646,-0.944 -0.54,-0.251L-0.742,-0.328C-0.14,-0.78 0.549,-1.046 1.235,-1.28C1.925,-1.51 2.627,-1.694 3.336,-1.842C4.75,-2.152 6.187,-2.34 7.626,-2.442C6.196,-2.246 4.775,-1.995 3.372,-1.678C2.671,-1.517 1.979,-1.321 1.304,-1.082C0.634,-0.841 -0.037,-0.561 -0.587,-0.13L-0.753,0L-0.788,-0.208C-1.023,-1.61 -1.083,-3.04 -0.98,-4.456C-0.866,-5.868 -0.589,-7.283 0,-8.573" style="fill:rgb(80,104,21);fill-rule:nonzero;"/>
    </g>
    <g transform="matrix(1,0,0,1,65.2834,18.695)">
        <path d="M0,-14.167C-0.467,-13.057 -0.723,-11.872 -0.863,-10.683C-1.01,-9.495 -1.035,-8.291 -0.925,-7.098C-0.79,-5.911 -0.601,-4.723 -0.232,-3.583C-0.088,-3.001 0.159,-2.453 0.354,-1.888C0.575,-1.333 0.85,-0.799 1.083,-0.249L0.894,-0.292C1.756,-0.925 2.641,-1.536 3.599,-2.015C4.542,-2.521 5.541,-2.918 6.558,-3.243C8.592,-3.892 10.748,-4.194 12.872,-4.028C11.809,-4.079 10.744,-3.989 9.697,-3.821C8.649,-3.66 7.612,-3.424 6.609,-3.084C5.605,-2.749 4.622,-2.343 3.697,-1.83C2.756,-1.344 1.891,-0.73 1.048,-0.094L0.923,0L0.858,-0.137C0.341,-1.231 -0.12,-2.354 -0.441,-3.521C-0.8,-4.679 -0.977,-5.883 -1.098,-7.084C-1.275,-9.487 -0.998,-11.967 0,-14.167" style="fill:rgb(80,104,21);fill-rule:nonzero;"/>
    </g>
    <g transform="matrix(1,0,0,1,59.0705,25.388)">
        <path d="M0,-15.36C-0.075,-14.006 -0.007,-12.648 0.145,-11.304C0.287,-9.959 0.526,-8.624 0.891,-7.323C1.25,-6.022 1.73,-4.752 2.358,-3.56C2.975,-2.36 3.762,-1.257 4.66,-0.259L4.487,-0.269C5.412,-1.038 6.505,-1.526 7.599,-1.95C8.701,-2.363 9.832,-2.686 10.973,-2.961C13.255,-3.511 15.578,-3.866 17.911,-4.073C15.589,-3.773 13.282,-3.355 11.013,-2.798C9.881,-2.511 8.76,-2.176 7.674,-1.755C6.598,-1.323 5.524,-0.825 4.65,-0.079L4.558,0L4.477,-0.089C2.62,-2.114 1.419,-4.654 0.723,-7.277C0.025,-9.908 -0.22,-12.656 0,-15.36" style="fill:rgb(80,104,21);fill-rule:nonzero;"/>
    </g>
    <g transform="matrix(1,0,0,1,55.3283,33.2626)">
        <path d="M0,-11.467C0.745,-9.448 1.565,-7.457 2.49,-5.518C2.959,-4.552 3.463,-3.602 4.035,-2.697C4.608,-1.799 5.245,-0.918 6.062,-0.258L5.907,-0.257C6.842,-0.954 7.945,-1.281 9.026,-1.572C10.116,-1.851 11.223,-2.047 12.332,-2.207C14.552,-2.53 16.79,-2.691 19.028,-2.739C16.795,-2.597 14.566,-2.372 12.357,-2.042C11.254,-1.868 10.155,-1.66 9.08,-1.37C8.017,-1.073 6.926,-0.724 6.065,-0.062L5.985,0L5.909,-0.06C5.038,-0.752 4.424,-1.669 3.851,-2.582C3.284,-3.504 2.791,-4.467 2.334,-5.443C1.415,-7.395 0.646,-9.413 0,-11.467" style="fill:rgb(80,104,21);fill-rule:nonzero;"/>
    </g>
    <g transform="matrix(1,0,0,1,60.382,77.798)">
        <path d="M0,-7.643C0.666,-7.713 1.133,-7.708 1.704,-7.726C2.251,-7.731 2.797,-7.736 3.343,-7.723C4.434,-7.701 5.524,-7.647 6.611,-7.553C8.784,-7.374 10.949,-7.051 13.063,-6.509C15.167,-5.958 17.265,-5.282 19.155,-4.182C21.046,-3.106 22.758,-1.691 24.009,0.093C22.707,-1.657 20.969,-3.009 19.068,-4.022C17.169,-5.058 15.073,-5.668 12.979,-6.154C10.876,-6.632 8.726,-6.892 6.572,-7.009C5.496,-7.071 4.417,-7.095 3.34,-7.086C2.802,-7.084 2.263,-7.064 1.726,-7.044C1.214,-7.021 0.596,-6.982 0.183,-6.938L0,-7.643Z" style="fill:rgb(80,104,21);fill-rule:nonzero;"/>
    </g>
    <g transform="matrix(1,0,0,1,71.8361,71.1629)">
        <path d="M0,5.809C0.119,4.466 0.33,3.119 0.826,1.836C0.956,1.518 1.093,1.199 1.305,0.912C1.494,0.623 1.774,0.335 2.136,0.214C2.854,0 3.539,0.084 4.22,0.142C5.573,0.328 6.896,0.653 8.174,1.107C9.423,1.585 10.769,2.073 11.67,3.109C11.203,2.619 10.585,2.321 9.972,2.061C9.358,1.795 8.729,1.563 8.086,1.373C6.808,0.979 5.499,0.656 4.177,0.503C3.527,0.431 2.832,0.358 2.25,0.524C1.683,0.709 1.365,1.373 1.082,1.945C0.559,3.163 0.25,4.487 0,5.809" style="fill:rgb(80,104,21);fill-rule:nonzero;"/>
    </g>
    <g transform="matrix(1,0,0,1,63.7102,69.6075)">
        <path d="M0,8.82C0.023,7.111 0.243,5.384 0.829,3.75C1.12,2.936 1.529,2.143 2.142,1.495C2.749,0.825 3.639,0.474 4.482,0.309C6.198,0 7.93,0.012 9.641,0.123C11.354,0.235 13.055,0.463 14.737,0.782C13.035,0.596 11.33,0.465 9.626,0.403C7.927,0.349 6.207,0.339 4.557,0.664C3.73,0.82 2.945,1.12 2.379,1.725C1.801,2.314 1.411,3.074 1.089,3.85C0.474,5.423 0.155,7.12 0,8.82" style="fill:rgb(80,104,21);fill-rule:nonzero;"/>
    </g>
    <g transform="matrix(0.145276,0.989391,0.989391,-0.145276,86.4183,120.933)">
        <path d="M0.223,-62.008L62.635,-62.008L70.576,-7.922L10.682,9.228L0.223,-62.008Z" style="fill:rgb(209,129,51);fill-rule:nonzero;"/>
    </g>
    <g transform="matrix(1,0,0,1,95.7219,181.609)">
        <path d="M0,-41.146L1.379,-51.448L-70.621,-51.448L-61.554,10.302L-49.528,10.302C-50.663,-19.301 -34.348,-48.972 0,-41.146" style="fill:rgb(196,108,35);fill-rule:nonzero;"/>
    </g>
    <g transform="matrix(1,0,0,1,95.7678,120.911)">
        <path d="M0,14L-69.333,14C-73.184,14 -76.333,10.85 -76.333,7C-76.333,3.15 -73.184,0 -69.333,0L0,0C3.85,0 7,3.15 7,7C7,10.85 3.85,14 0,14" style="fill:rgb(209,129,51);fill-rule:nonzero;"/>
    </g>
    <g transform="matrix(1,0,0,1,68.6828,126.032)">
        <path d="M0,-12.719C0,-12.719 5.579,-23.462 15.525,-20.308C25.472,-17.155 34.933,-7.451 34.326,-0.294C33.72,6.862 35.176,10.622 35.176,10.622C35.176,10.622 33.234,9.045 27.776,9.894C22.318,10.743 12.251,9.531 5.337,2.374C-1.577,-4.782 -2.205,-9.585 0,-12.719" style="fill:rgb(28,94,28);fill-rule:nonzero;"/>
    </g>
    <g transform="matrix(1,0,0,1,62.7863,132.892)">
        <path d="M0,-23.881C2.117,-24.37 4.017,-23.998 5.912,-23.555C7.789,-23.072 9.588,-22.369 11.322,-21.552C14.783,-19.895 17.976,-17.771 21.028,-15.5C24.081,-13.229 27.032,-10.816 29.8,-8.205C31.182,-6.898 32.522,-5.546 33.77,-4.109C35.008,-2.671 36.214,-1.182 37.124,0.489C36.181,-1.162 34.948,-2.624 33.685,-4.034C32.413,-5.443 31.049,-6.764 29.646,-8.04C26.836,-10.587 23.848,-12.932 20.762,-15.135C17.673,-17.324 14.451,-19.341 11.014,-20.882C9.293,-21.64 7.521,-22.279 5.707,-22.697C4.803,-22.92 3.882,-23.042 2.968,-23.112C2.077,-23.155 1.087,-23.136 0.347,-22.915L0,-23.881Z" style="fill:rgb(80,104,21);fill-rule:nonzero;"/>
    </g>
    <g transform="matrix(1,0,0,1,101.24,131.174)">
        <path d="M0,-2.79C-0.568,-3.21 -1.191,-3.548 -1.826,-3.849C-2.457,-4.159 -3.108,-4.425 -3.774,-4.649C-4.443,-4.861 -5.119,-5.058 -5.81,-5.186C-6.497,-5.332 -7.195,-5.409 -7.892,-5.488L-7.765,-5.662C-7.486,-4.963 -7.409,-4.228 -7.362,-3.504C-7.321,-2.779 -7.327,-2.053 -7.37,-1.331C-7.44,0.116 -7.634,1.551 -7.912,2.968C-7.728,1.537 -7.599,0.099 -7.537,-1.338C-7.509,-2.056 -7.518,-2.776 -7.571,-3.49C-7.63,-4.2 -7.724,-4.921 -7.996,-5.563L-8.079,-5.758L-7.869,-5.738C-6.453,-5.599 -5.058,-5.282 -3.718,-4.813C-2.385,-4.333 -1.091,-3.695 0,-2.79" style="fill:rgb(80,104,21);fill-rule:nonzero;"/>
    </g>
    <g transform="matrix(1,0,0,1,101.565,129.935)">
        <path d="M0,-6.519C-0.949,-7.261 -2.027,-7.817 -3.138,-8.263C-4.246,-8.716 -5.401,-9.055 -6.581,-9.26C-7.763,-9.441 -8.959,-9.569 -10.156,-9.511C-10.755,-9.524 -11.349,-9.429 -11.945,-9.388C-12.539,-9.32 -13.125,-9.194 -13.718,-9.114L-13.627,-9.286C-13.24,-8.287 -12.883,-7.273 -12.671,-6.223C-12.429,-5.181 -12.307,-4.113 -12.26,-3.046C-12.165,-0.914 -12.438,1.247 -13.152,3.253C-12.825,2.24 -12.634,1.189 -12.522,0.135C-12.403,-0.918 -12.36,-1.981 -12.427,-3.039C-12.487,-4.095 -12.621,-5.15 -12.875,-6.177C-13.098,-7.212 -13.464,-8.208 -13.857,-9.187L-13.916,-9.332L-13.767,-9.359C-12.575,-9.573 -11.371,-9.725 -10.16,-9.729C-8.949,-9.772 -7.741,-9.628 -6.551,-9.431C-4.185,-8.974 -1.863,-8.058 0,-6.519" style="fill:rgb(80,104,21);fill-rule:nonzero;"/>
    </g>
    <g transform="matrix(1,0,0,1,97.8801,128.887)">
        <path d="M0,-12.906C-1.288,-13.333 -2.616,-13.622 -3.952,-13.828C-5.288,-14.041 -6.64,-14.16 -7.99,-14.149C-9.34,-14.142 -10.691,-14.01 -12.007,-13.716C-13.325,-13.434 -14.596,-12.963 -15.794,-12.356L-15.739,-12.521C-15.239,-11.428 -15.055,-10.245 -14.931,-9.078C-14.82,-7.906 -14.805,-6.73 -14.837,-5.557C-14.902,-3.211 -15.167,-0.876 -15.577,1.43C-15.26,-0.889 -15.061,-3.225 -15.005,-5.561C-14.985,-6.729 -15.016,-7.899 -15.138,-9.057C-15.273,-10.209 -15.474,-11.374 -15.965,-12.414L-16.017,-12.523L-15.91,-12.578C-13.471,-13.841 -10.705,-14.336 -7.99,-14.322C-5.269,-14.307 -2.553,-13.826 0,-12.906" style="fill:rgb(80,104,21);fill-rule:nonzero;"/>
    </g>
    <g transform="matrix(1,0,0,1,87.5002,125.376)">
        <path d="M0,-16.084C-2.144,-15.893 -4.28,-15.622 -6.394,-15.236C-7.448,-15.036 -8.497,-14.798 -9.52,-14.482C-10.536,-14.164 -11.554,-13.78 -12.404,-13.163L-12.365,-13.313C-11.936,-12.229 -11.908,-11.079 -11.911,-9.959C-11.926,-8.834 -12.027,-7.715 -12.162,-6.602C-12.431,-4.376 -12.861,-2.173 -13.399,0C-12.953,-2.193 -12.587,-4.402 -12.328,-6.622C-12.207,-7.731 -12.121,-8.847 -12.12,-9.96C-12.128,-11.064 -12.18,-12.209 -12.594,-13.212L-12.633,-13.306L-12.555,-13.363C-11.659,-14.023 -10.613,-14.376 -9.583,-14.691C-8.544,-14.997 -7.486,-15.221 -6.425,-15.407C-4.3,-15.783 -2.151,-15.999 0,-16.084" style="fill:rgb(80,104,21);fill-rule:nonzero;"/>
    </g>
</svg>
