<?xml version="1.0" encoding="UTF-8" standalone="no"?>
<!DOCTYPE svg PUBLIC "-//W3C//DTD SVG 1.1//EN" "http://www.w3.org/Graphics/SVG/1.1/DTD/svg11.dtd">
<svg width="100%" height="100%" viewBox="0 0 152 187" version="1.1" xmlns="http://www.w3.org/2000/svg" xmlns:xlink="http://www.w3.org/1999/xlink" xml:space="preserve" xmlns:serif="http://www.serif.com/" style="fill-rule:evenodd;clip-rule:evenodd;stroke-linejoin:round;stroke-miterlimit:2;">
    <g transform="matrix(-0.438567,-0.898699,-0.898699,0.438567,19.2618,54.8647)">
        <path d="M-27.534,-28.26C-27.534,-28.26 -40.01,-29.805 -39.673,-16.575C-39.337,-3.345 -19.783,11.036 -27.534,29.656C-10.094,17.435 -5.559,6.457 -6.883,-6.386C-8.485,-21.924 -21.257,-36.335 -27.534,-28.26" style="fill:rgb(56,140,56);fill-rule:nonzero;"/>
    </g>
    <g transform="matrix(1,0,0,1,46.686,84.8729)">
        <path d="M0,-19.123C-8.582,-17.217 -12.606,-8.039 -12.096,-0.255C-10.396,-0.152 -8.724,-0.052 -7.1,0C-7.821,-6.859 -5.753,-15.288 0,-19.123" style="fill:rgb(140,198,78);fill-rule:nonzero;"/>
    </g>
    <g transform="matrix(1,0,0,1,27.1479,85.2559)">
        <path d="M0,-17.17C-7.498,-14.358 -8.43,-7.369 -10.106,0C-8.63,-0.355 -7.126,-0.591 -5.608,-0.741C-6.214,-7.104 -3.76,-12.47 0,-17.17" style="fill:rgb(140,198,78);fill-rule:nonzero;"/>
    </g>
    <g transform="matrix(1,0,0,1,34.686,58.5149)">
        <path d="M0,7.235C-1.556,3.344 -4.324,1.874 -7.36,0C-9.522,0.835 -11.545,1.821 -13.428,3.002C-8.92,3.03 -4.214,5.128 0,7.235" style="fill:rgb(140,198,78);fill-rule:nonzero;"/>
    </g>
    <g transform="matrix(1,0,0,1,82.7045,65.1021)">
        <path d="M0,54.683C0.797,49.94 0.745,44.897 0.203,40.023C-0.342,35.121 -1.516,30.287 -3.274,25.672C-5.031,21.075 -7.421,16.634 -10.322,12.718C-11.844,10.806 -13.683,9.156 -15.661,7.706C-17.64,6.253 -19.805,5.042 -22.075,4.074C-26.601,2.092 -31.51,0.995 -36.455,0.638C-41.403,0.287 -46.421,0.686 -51.246,1.9C-56.067,3.1 -60.707,5.152 -64.711,8.125C-66.693,9.632 -68.529,11.341 -70.111,13.275C-71.665,15.23 -72.972,17.373 -74.019,19.648C-73.01,17.357 -71.737,15.186 -70.209,13.197C-68.652,11.229 -66.835,9.478 -64.862,7.927C-60.878,4.863 -56.227,2.71 -51.372,1.415C-46.513,0.107 -41.438,-0.382 -36.408,-0.111C-31.38,0.168 -26.361,1.199 -21.683,3.154C-19.337,4.109 -17.085,5.319 -15.008,6.79C-12.933,8.258 -10.986,9.946 -9.355,11.926C-6.239,15.989 -3.777,20.413 -1.877,25.125C0.006,29.83 1.295,34.776 1.939,39.808C2.574,44.855 2.739,49.915 1.963,55.065L0,54.683Z" style="fill:rgb(80,104,21);fill-rule:nonzero;"/>
    </g>
    <g transform="matrix(-0.128031,0.99177,0.99177,0.128031,120.748,46.1339)">
        <path d="M29.913,-23.113C29.913,-23.113 42.389,-24.657 42.052,-11.427C41.715,1.803 22.161,16.184 29.913,34.803C12.472,22.582 7.936,11.604 9.261,-1.239C10.863,-16.777 23.636,-31.188 29.913,-23.113" style="fill:rgb(52,122,52);fill-rule:nonzero;"/>
    </g>
    <g transform="matrix(1,0,0,1,133.686,63.0309)">
        <path d="M0,6.719C2.795,3.924 5.59,3.572 8.726,3.612C7.553,2.274 6.367,1.072 5.164,0C2.377,1.251 0,3.272 0,6.719" style="fill:rgb(92,170,46);fill-rule:nonzero;"/>
    </g>
    <g transform="matrix(1,0,0,1,99.686,86.4619)">
        <path d="M0,-15.712C1.672,-9.861 4.733,-5.403 5.695,-0.011C6.788,0 7.907,-0.115 9.045,-0.31C9.572,-6.939 2.913,-10.858 0,-15.712" style="fill:rgb(92,170,46);fill-rule:nonzero;"/>
    </g>
    <g transform="matrix(1,0,0,1,113.858,70.687)">
        <path d="M0,-1.939C1.455,-9.43 9.374,-13.139 16.569,-13.072C13.094,-14.55 9.442,-15.28 5.557,-15.479C-0.168,-13.572 -4.423,-8.364 -5.987,-1.704C-2.539,2.635 0.862,7.715 1.654,13.54C3.589,12.83 5.571,12.014 7.595,11.194C6.768,5.962 3.764,1.428 0,-1.939" style="fill:rgb(92,170,46);fill-rule:nonzero;"/>
    </g>
    <g transform="matrix(1,0,0,1,117.686,77.8729)">
        <path d="M0,-9.54C6.084,-8.019 8.692,-3.187 9.155,1.917C10.888,1.296 12.644,0.731 14.421,0.285C12.124,-5.565 9.646,-11.457 0,-9.54" style="fill:rgb(92,170,46);fill-rule:nonzero;"/>
    </g>
    <g transform="matrix(1,0,0,1,71.0199,67.6902)">
        <path d="M0,50.092C-0.01,45.286 0.472,40.592 1.337,35.919C2.217,31.264 3.528,26.665 5.493,22.322C7.448,17.993 10.117,13.899 13.697,10.69C15.473,9.08 17.486,7.735 19.581,6.622C21.674,5.492 23.87,4.581 26.104,3.81C30.573,2.256 35.213,1.283 39.885,0.713C44.559,0.149 49.282,0 53.975,0.307C58.661,0.619 63.346,1.37 67.797,2.901C70.016,3.67 72.178,4.645 74.126,5.962C76.065,7.275 77.798,8.967 78.875,11.06C77.761,8.986 76.007,7.336 74.057,6.067C72.098,4.792 69.934,3.863 67.718,3.137C63.271,1.696 58.604,1.033 53.946,0.807C49.282,0.584 44.6,0.816 39.982,1.456C35.367,2.104 30.799,3.149 26.44,4.751C22.096,6.343 17.885,8.488 14.542,11.611C11.179,14.734 8.681,18.706 6.863,22.931C5.037,27.166 3.838,31.667 3.06,36.228C2.295,40.78 1.907,45.461 1.999,50.027L0,50.092Z" style="fill:rgb(80,104,21);fill-rule:nonzero;"/>
    </g>
    <g transform="matrix(1,0,0,1,70.6928,8.92)">
        <path d="M0,40.41C0,40.41 1.316,49.33 -12.529,48.471C-33.101,47.194 -26.874,20.08 -31.44,6.83C-36.007,-6.42 -47.757,-8.92 -47.757,-8.92C-47.757,-8.92 -11.861,-5.17 1.316,12.58C14.493,30.33 10.007,43.075 0,40.41" style="fill:rgb(92,170,46);fill-rule:nonzero;"/>
    </g>
    <g transform="matrix(1,0,0,1,59.7201,20.0975)">
        <path d="M0,-8.911C-1.214,-9.602 -2.458,-10.255 -3.722,-10.868C-4.959,-8.765 -6.014,-3.992 -3.666,1.957C-4.777,-4.588 -1.781,-7.681 0,-8.911" style="fill:rgb(140,198,78);fill-rule:nonzero;"/>
    </g>
    <g transform="matrix(1,0,0,1,41.851,26.6776)">
        <path d="M0,8.045C0.204,10.088 0.454,12.114 0.802,14.068C4.536,12.607 14.064,10.094 26.312,15.904C27.129,5.651 30.639,-0.467 32.02,-2.518C31.439,-3.392 30.828,-4.276 30.158,-5.178C29.464,-6.113 28.695,-7 27.883,-7.859C25.674,-5.505 20.924,0.483 22.085,7.447C15.056,5.244 4.42,5.419 0,8.045" style="fill:rgb(140,198,78);fill-rule:nonzero;"/>
    </g>
    <g transform="matrix(1,0,0,1,73.7065,7.1513)">
        <path d="M0,112.624C0.987,107.583 1.602,102.385 2.036,97.217C2.462,92.036 2.637,86.834 2.584,81.635C2.48,71.236 1.329,60.837 -1.05,50.706C-2.291,45.654 -3.862,40.685 -5.792,35.852C-7.716,31.015 -10.146,26.391 -12.891,21.968L-15.037,18.704L-17.39,15.585C-18.147,14.521 -19.026,13.559 -19.882,12.576C-20.759,11.612 -21.55,10.567 -22.508,9.681L-25.286,6.925C-26.23,6.026 -27.255,5.215 -28.236,4.355L-29.724,3.082C-30.235,2.678 -30.772,2.306 -31.295,1.915L-34.454,-0.401L-31.258,1.865C-30.728,2.247 -30.185,2.611 -29.666,3.009L-28.156,4.259C-27.16,5.103 -26.12,5.901 -25.159,6.787L-22.33,9.506C-21.354,10.381 -20.543,11.415 -19.648,12.369C-18.773,13.342 -17.874,14.296 -17.097,15.352L-14.681,18.449L-12.47,21.697C-9.639,26.102 -7.116,30.722 -5.099,35.564C-3.076,40.403 -1.412,45.389 -0.08,50.465C2.483,60.642 3.812,71.115 4.084,81.605C4.221,86.852 4.128,92.104 3.781,97.344C3.422,102.591 2.896,107.795 1.959,113.025L0,112.624Z" style="fill:rgb(80,104,21);fill-rule:nonzero;"/>
    </g>
    <g transform="matrix(1,0,0,1,87.1093,21.7188)">
        <path d="M0,40.412C0,40.412 -1.316,49.331 12.529,48.473C33.101,47.196 26.874,20.081 31.44,6.831C36.007,-6.419 47.757,-8.919 47.757,-8.919C47.757,-8.919 11.861,-5.169 -1.316,12.581C-14.493,30.331 -10.007,43.077 0,40.412" style="fill:rgb(56,140,56);fill-rule:nonzero;"/>
    </g>
    <g transform="matrix(1,0,0,1,117.254,22.012)">
        <path d="M0,12.194C0.309,10.139 0.714,8.225 1.296,6.538C1.369,6.326 1.449,6.125 1.526,5.918C-2.482,4.987 -7.236,5.453 -11.535,7.602C-10.708,2.641 -7.524,-1.481 -3.963,-4.509C-7.739,-3.308 -11.661,-1.825 -15.416,-0.006C-18.276,4.564 -17.623,11.114 -19.22,16.703C-12.939,12.215 -7.003,10.797 0,12.194" style="fill:rgb(140,198,78);fill-rule:nonzero;"/>
    </g>
    <g transform="matrix(1,0,0,1,87.686,61.9799)">
        <path d="M0,-4.23C8.309,-3.307 15.753,-0.658 22.357,3.674C24.369,1.489 25.683,-1.336 26.574,-4.513C17.527,-5.676 9.185,-7.904 0,-4.23" style="fill:rgb(140,198,78);fill-rule:nonzero;"/>
    </g>
    <g transform="matrix(1,0,0,1,92.686,45.7829)">
        <path d="M0,0.967C8.114,0.967 16.223,0.174 22.872,5.144C23.085,3.563 23.253,1.954 23.399,0.342C15.913,-2.702 6.857,-4.177 0,0.967" style="fill:rgb(140,198,78);fill-rule:nonzero;"/>
    </g>
    <g transform="matrix(-0.710948,-0.703244,-0.703244,0.710948,78.7002,44.0882)">
        <path d="M1.748,-21.353C2.191,-18.162 2.275,-14.995 1.841,-11.947C1.813,-11.746 1.778,-11.556 1.748,-11.358C-2.274,-7.473 -7.506,-5.138 -13.214,-5.107C-8.04,-10.338 -2.873,-15.575 1.748,-21.353" style="fill:rgb(140,198,78);fill-rule:nonzero;"/>
    </g>
    <g transform="matrix(1,0,0,1,76.6869,17.7499)">
        <path d="M0,105.043C-0.113,99.905 0.08,94.837 0.417,89.752C0.762,84.674 1.289,79.61 2.013,74.574C2.737,69.539 3.657,64.531 4.793,59.572C5.957,54.618 7.355,49.72 9.021,44.912C10.664,40.097 12.686,35.409 15.017,30.89C16.146,28.607 17.485,26.44 18.792,24.26L20.933,21.101C21.631,20.037 22.471,19.075 23.233,18.058C26.417,14.103 29.964,10.403 34.042,7.362C38.115,4.323 42.588,1.857 47.307,0C42.618,1.935 38.199,4.47 34.195,7.561C30.186,10.653 26.722,14.389 23.627,18.365C22.887,19.389 22.07,20.355 21.394,21.422L19.322,24.591C18.06,26.777 16.768,28.946 15.686,31.229C13.447,35.75 11.519,40.43 9.968,45.234C8.394,50.03 7.086,54.912 6.013,59.845C4.966,64.784 4.135,69.768 3.499,74.775C2.255,84.781 1.67,94.928 1.999,104.956L0,105.043Z" style="fill:rgb(80,104,21);fill-rule:nonzero;"/>
    </g>
    <g transform="matrix(-0.132936,-0.991125,-0.991125,0.132936,33.4901,70.9599)">
        <path d="M-36.963,-25.592C-36.963,-25.592 -50.729,-28.118 -46.756,-11.667C-42.784,4.785 -28.649,21.741 -36.963,38.747C-17.487,14.695 -12.834,3.463 -17.688,-14.977C-22.176,-32.032 -34.325,-28.929 -36.963,-25.592" style="fill:rgb(28,94,28);fill-rule:nonzero;"/>
    </g>
    <g transform="matrix(1,0,0,1,41.3573,94.7498)">
        <path d="M0,-8.659C-4.095,-8.442 -7.885,-7.621 -11.653,-6.078C-5.067,-6.476 3.207,-5.1 7.579,0C7.579,-4.716 3.659,-6.763 0,-8.659" style="fill:rgb(56,140,56);fill-rule:nonzero;"/>
    </g>
    <g transform="matrix(-0.517918,-0.85543,-0.85543,0.517918,-0.367119,94.2138)">
        <path d="M-16.043,-27.755C-14.268,-24.824 -11.576,-21.284 -10.519,-17.919C-11.058,-10.618 -12.947,-1.92 -16.043,9.284C-15.761,2.816 -17.886,-2.595 -21.211,-7.457C-15.86,-12.596 -15.877,-21.189 -16.043,-27.755" style="fill:rgb(56,140,56);fill-rule:nonzero;"/>
    </g>
    <g transform="matrix(1,0,0,1,22.7944,95.2154)">
        <path d="M0,13.972C2.852,14.471 5.724,15.17 8.596,15.937C11.737,6.889 21.644,3.284 29.892,0.534C18.231,-1.965 5.19,3.866 0,13.972" style="fill:rgb(56,140,56);fill-rule:nonzero;"/>
    </g>
    <g transform="matrix(1,0,0,1,73.5575,92.5304)">
        <path d="M0,30.492C-1.396,25.82 -3.616,21.234 -6.368,17.112C-9.146,12.994 -12.559,9.247 -16.682,6.434C-18.737,5.027 -20.948,3.847 -23.267,2.914C-25.602,2.018 -28.039,1.407 -30.518,1.007C-35.497,0.339 -40.603,0.682 -45.538,1.768C-40.643,0.521 -35.527,0 -30.454,0.511C-27.928,0.833 -25.425,1.373 -23.005,2.211C-20.602,3.087 -18.292,4.222 -16.128,5.601C-11.789,8.357 -8.14,12.104 -5.137,16.255C-2.148,20.446 0.258,24.981 1.924,29.946L0,30.492Z" style="fill:rgb(80,104,21);fill-rule:nonzero;"/>
    </g>
    <g transform="matrix(0.145261,0.989393,0.989393,-0.145261,107.046,115.772)">
        <path d="M0.223,-62.008L62.635,-62.008L70.576,-7.921L10.682,9.228L0.223,-62.008Z" style="fill:rgb(209,129,51);fill-rule:nonzero;"/>
    </g>
    <g transform="matrix(1,0,0,1,116.349,176.448)">
        <path d="M0,-41.146L1.379,-51.448L-70.621,-51.448L-61.554,10.302L-49.528,10.302C-50.663,-19.301 -34.348,-48.972 0,-41.146" style="fill:rgb(196,108,35);fill-rule:nonzero;"/>
    </g>
    <g transform="matrix(1,0,0,1,116.395,115.75)">
        <path d="M0,14L-69.333,14C-73.183,14 -76.333,10.85 -76.333,7C-76.333,3.149 -73.183,0 -69.333,0L0,0C3.85,0 7,3.149 7,7C7,10.85 3.85,14 0,14" style="fill:rgb(209,129,51);fill-rule:nonzero;"/>
    </g>
</svg>
