<?xml version="1.0" encoding="UTF-8" standalone="no"?>
<!DOCTYPE svg PUBLIC "-//W3C//DTD SVG 1.1//EN" "http://www.w3.org/Graphics/SVG/1.1/DTD/svg11.dtd">
<svg width="100%" height="100%" viewBox="0 0 161 196" version="1.1" xmlns="http://www.w3.org/2000/svg" xmlns:xlink="http://www.w3.org/1999/xlink" xml:space="preserve" xmlns:serif="http://www.serif.com/" style="fill-rule:evenodd;clip-rule:evenodd;stroke-linejoin:round;stroke-miterlimit:2;">
    <g transform="matrix(1,0,0,1,76.7126,38.4777)">
        <path d="M0,51.41C0,51.41 -1.731,47.139 -14.603,37.935C-27.474,28.732 -38.931,13.444 -27.998,6.722C-17.064,0 4.084,25.16 0,51.41" style="fill:rgb(58,163,58);fill-rule:nonzero;"/>
    </g>
    <g transform="matrix(-0.868954,-0.494894,-0.494894,0.868954,65.3901,87.5809)">
        <path d="M35.465,-28.575C36.818,-26.106 37.032,-23.812 36.374,-21.718C36.165,-22.384 35.869,-23.081 35.465,-23.816C29.291,-35.068 -1.538,-28.43 -10.98,-3.599C-1.538,-28.43 29.29,-39.827 35.465,-28.575" style="fill:rgb(73,206,73);fill-rule:nonzero;"/>
    </g>
    <g transform="matrix(1,0,0,1,85.3044,39.4525)">
        <path d="M0,93.568L-2,93.567C-2,93.286 -1.716,65.184 22.869,45.194C46.595,25.903 61,13.234 61,0L63,0C63,14.122 48.315,27.081 24.131,46.746C0.308,66.117 0,93.296 0,93.568" style="fill:rgb(52,122,52);fill-rule:nonzero;"/>
    </g>
    <g transform="matrix(0.81171,-0.584061,-0.584061,-0.81171,86.3187,110.098)">
        <path d="M-24.035,-7.423C-23.803,-6.999 -1.095,35.503 -25.722,74.204L-24.035,75.279C1.237,35.564 -22.042,-7.949 -22.281,-8.383L-24.035,-7.423Z" style="fill:rgb(52,122,52);fill-rule:nonzero;"/>
    </g>
    <g transform="matrix(1,0,0,1,74.8073,11.7893)">
        <path d="M0,116.696C-0.107,115.233 -2.471,80.667 11.883,62.727C37.073,31.243 25.194,1.057 25.071,0.756L26.923,0C27.051,0.312 39.36,31.586 13.445,63.977C-0.416,81.3 1.969,116.199 1.994,116.55L0,116.696Z" style="fill:rgb(52,122,52);fill-rule:nonzero;"/>
    </g>
    <g transform="matrix(0.0500536,-0.998747,-0.998747,-0.0500536,134.042,66.2677)">
        <path d="M-36.128,-18.583C-20.524,10.852 -37.611,36.801 -37.785,37.057L-36.128,38.176C-35.946,37.909 -18.185,10.999 -34.36,-19.518L-36.128,-18.583Z" style="fill:rgb(52,122,52);fill-rule:nonzero;"/>
    </g>
    <g transform="matrix(0.411344,-0.91148,-0.91148,-0.411344,64.2248,81.1355)">
        <path d="M-27.681,-14.95C-11.776,12.487 -29.204,41.261 -29.382,41.548L-27.681,42.601C-27.493,42.304 -9.45,12.508 -25.951,-15.954L-27.681,-14.95Z" style="fill:rgb(52,122,52);fill-rule:nonzero;"/>
    </g>
    <g transform="matrix(-0.968984,-0.247123,-0.247123,0.968984,80.2476,28.3197)">
        <path d="M-15.885,60.884L-13.886,60.884C-13.88,27.233 15.331,5.562 15.628,5.346L14.451,3.73C14.147,3.95 -15.881,26.199 -15.885,60.884" style="fill:rgb(52,122,52);fill-rule:nonzero;"/>
    </g>
    <g transform="matrix(1,0,0,1,100.101,-0.166358)">
        <path d="M0,52.889C0,52.889 0.703,48.333 -5.63,33.833C-11.963,19.333 -13.963,0.333 -1.13,0.167C11.703,0 16.963,32.445 0,52.889" style="fill:rgb(73,206,73);fill-rule:nonzero;"/>
    </g>
    <g transform="matrix(1,0,0,1,100.101,5.50064)">
        <path d="M0,47.222C0,47.222 0.703,42.666 -5.63,28.166C-11.963,13.666 -10.599,0 -0.963,0C6.967,0 16.963,26.778 0,47.222" style="fill:rgb(58,163,58);fill-rule:nonzero;"/>
    </g>
    <g transform="matrix(1,0,0,1,126.413,20.5361)">
        <path d="M0,50.207C0,50.207 3.33,47.019 7.123,31.658C10.917,16.297 20.887,0 31.175,7.674C41.462,15.349 25.9,44.3 0,50.207" style="fill:rgb(58,163,58);fill-rule:nonzero;"/>
    </g>
    <g transform="matrix(1,0,0,1,126.419,25.921)">
        <path d="M0,44.827C0,44.827 2.973,41.98 6.359,28.265C9.747,14.551 18.648,0 27.834,6.851C37.019,13.704 23.125,39.552 0,44.827" style="fill:rgb(52,122,52);fill-rule:nonzero;"/>
    </g>
    <g transform="matrix(1,0,0,1,99.5388,39.2076)">
        <path d="M0,54.141C0,54.141 1.445,49.764 -2.406,34.417C-6.258,19.071 -5.093,0 7.592,1.955C20.276,3.911 20.105,36.778 0,54.141" style="fill:rgb(58,163,58);fill-rule:nonzero;"/>
    </g>
    <g transform="matrix(1,0,0,1,99.8942,43.9062)">
        <path d="M0,49.502C0,49.502 1.356,45.517 -2.497,31.463C-6.35,17.41 -5.395,0 6.862,1.898C19.12,3.797 19.247,33.819 0,49.502" style="fill:rgb(52,122,52);fill-rule:nonzero;"/>
    </g>
    <g transform="matrix(1,0,0,1,75.529,69.0201)">
        <path d="M0,54.141C0,54.141 1.446,49.764 -2.405,34.417C-6.258,19.07 -5.093,0 7.592,1.955C20.276,3.911 20.106,36.778 0,54.141" style="fill:rgb(58,163,58);fill-rule:nonzero;"/>
    </g>
    <g transform="matrix(1,0,0,1,75.529,73.0461)">
        <path d="M0,50.115C0,50.115 1.446,45.738 -2.405,30.391C-6.258,15.044 -6.726,0 5.959,1.955C18.644,3.909 20.106,32.752 0,50.115" style="fill:rgb(52,122,52);fill-rule:nonzero;"/>
    </g>
    <g transform="matrix(1,0,0,1,80.1032,9.54544)">
        <path d="M0,53.603C0,53.603 -0.957,49.094 -12.02,37.782C-23.083,26.469 -31.689,9.413 -19.749,4.707C-7.809,0 8.613,28.472 0,53.603" style="fill:rgb(58,163,58);fill-rule:nonzero;"/>
    </g>
    <g transform="matrix(1,0,0,1,80.1032,14.8274)">
        <path d="M0,48.321C0,48.321 -0.957,43.812 -12.02,32.5C-23.083,21.187 -28.121,7.507 -18.632,3.34C-11.025,0 8.613,23.19 0,48.321" style="fill:rgb(52,122,52);fill-rule:nonzero;"/>
    </g>
    <g transform="matrix(1,0,0,1,46.3591,37.052)">
        <path d="M0,43.031C0,43.031 -3.03,39.557 -18.199,35.056C-33.368,30.555 -49.187,19.841 -41.044,9.92C-32.901,0 -4.702,16.885 0,43.031" style="fill:rgb(58,163,58);fill-rule:nonzero;"/>
    </g>
    <g transform="matrix(1,0,0,1,46.3591,41.309)">
        <path d="M0,38.774C0,38.774 -3.03,35.3 -18.199,30.799C-33.368,26.298 -44.93,16.317 -38.305,8.442C-31.202,0 -4.702,12.628 0,38.774" style="fill:rgb(52,122,52);fill-rule:nonzero;"/>
    </g>
    <g transform="matrix(1,0,0,1,51.9821,79.3824)">
        <path d="M0,18.224C0,18.224 -4.3,16.563 -19.818,19.651C-35.337,22.738 -54.325,20.63 -51.745,8.058C-49.164,-4.514 -16.346,-2.717 0,18.224" style="fill:rgb(58,163,58);fill-rule:nonzero;"/>
    </g>
    <g transform="matrix(1,0,0,1,51.9821,80.4824)">
        <path d="M0,17.124C0,17.124 -4.3,15.463 -19.818,18.551C-35.337,21.638 -50.758,20.631 -48.178,8.059C-45.597,-4.514 -16.346,-3.817 0,17.124" style="fill:rgb(52,122,52);fill-rule:nonzero;"/>
    </g>
    <g transform="matrix(1,0,0,1,70.3278,101.857)">
        <path d="M0,18.224C0,18.224 -4.3,16.563 -19.818,19.65C-35.337,22.738 -54.325,20.63 -51.745,8.058C-49.165,-4.514 -16.346,-2.717 0,18.224" style="fill:rgb(52,122,52);fill-rule:nonzero;"/>
    </g>
    <g transform="matrix(1,0,0,1,104.585,90.2004)">
        <path d="M0,6.906C0,6.906 4.512,5.96 19.33,11.508C34.148,17.054 53.229,18.034 52.707,5.21C52.187,-7.614 19.507,-11.128 0,6.906" style="fill:rgb(58,163,58);fill-rule:nonzero;"/>
    </g>
    <g transform="matrix(1,0,0,1,104.585,93.3444)">
        <path d="M0,3.762C0,3.762 4.533,2.758 19.33,8.364C30.22,12.489 48.741,15.48 48.22,2.657C47.699,-10.168 16.845,-11.718 0,3.762" style="fill:rgb(52,122,52);fill-rule:nonzero;"/>
    </g>
    <g transform="matrix(0.145261,0.989393,0.989393,-0.145261,102.639,124.523)">
        <path d="M0.223,-62.008L62.635,-62.008L70.576,-7.921L10.682,9.228L0.223,-62.008Z" style="fill:rgb(209,129,51);fill-rule:nonzero;"/>
    </g>
    <g transform="matrix(1,0,0,1,111.941,185.199)">
        <path d="M0,-41.146L1.38,-51.448L-70.62,-51.448L-61.554,10.302L-49.527,10.302C-50.662,-19.301 -34.347,-48.972 0,-41.146" style="fill:rgb(196,108,35);fill-rule:nonzero;"/>
    </g>
    <g transform="matrix(1,0,0,1,111.987,124.501)">
        <path d="M0,14L-69.333,14C-73.183,14 -76.333,10.85 -76.333,7C-76.333,3.149 -73.183,0 -69.333,0L0,0C3.851,0 7,3.149 7,7C7,10.85 3.851,14 0,14" style="fill:rgb(209,129,51);fill-rule:nonzero;"/>
    </g>
</svg>
