<?xml version="1.0" encoding="UTF-8" standalone="no"?>
<!DOCTYPE svg PUBLIC "-//W3C//DTD SVG 1.1//EN" "http://www.w3.org/Graphics/SVG/1.1/DTD/svg11.dtd">
<svg width="100%" height="100%" viewBox="0 0 565 512" version="1.1" xmlns="http://www.w3.org/2000/svg" xmlns:xlink="http://www.w3.org/1999/xlink" xml:space="preserve" xmlns:serif="http://www.serif.com/" style="fill-rule:evenodd;clip-rule:evenodd;stroke-linejoin:round;stroke-miterlimit:2;">
    <g transform="matrix(3.12377,0,0,2.66056,-97.0566,-106.828)">
        <g transform="matrix(1,0,0,1,108.047,168.005)">
            <path d="M0,-75.172C0,-75.172 11.971,-30.353 3.305,-0.77C6.877,0 8.846,-0.77 8.846,-0.77C8.846,-0.77 13.97,-57.545 0,-75.172" style="fill:rgb(52,122,52);fill-rule:nonzero;"/>
        </g>
        <g transform="matrix(1,0,0,1,130.102,172.486)">
            <path d="M0,-56.5C0,-56.5 -11,-23 -10.75,-6.25C-13,0 -16.538,-6.25 -16.538,-6.25C-16.538,-6.25 -13.208,-40 0,-56.5" style="fill:rgb(52,122,52);fill-rule:nonzero;"/>
        </g>
        <g transform="matrix(1,0,0,1,130.102,175.272)">
            <path d="M0,-46.786C0,-46.786 -6.727,-18.886 -5.672,-5.215C-7.079,0 -10.12,-4.934 -10.12,-4.934C-10.12,-4.934 -9.301,-32.667 0,-46.786" style="fill:rgb(52,122,52);fill-rule:nonzero;"/>
        </g>
        <g transform="matrix(0.675605,0.737264,0.737264,-0.675605,129.46,155.121)">
            <path d="M8.746,-4.502C8.746,-4.502 6.49,13.573 10.221,21.344C10.005,24.254 8.746,22.695 8.746,22.695C8.746,22.695 3.328,2.907 7.131,-7.19C9.649,-8.142 8.746,-4.502 8.746,-4.502" style="fill:rgb(52,122,52);fill-rule:nonzero;"/>
        </g>
        <g transform="matrix(-0.872043,-0.489429,-0.489429,0.872043,123.009,163.542)">
            <path d="M-1.561,-17.68C-1.561,-17.68 0.841,-8.104 -5.265,4.126C-2.983,6.146 -1.561,4.564 -1.561,4.564C-1.561,4.564 4.273,-18.276 -3.607,-23.646C-1.993,-20.391 -1.561,-17.68 -1.561,-17.68" style="fill:rgb(52,122,52);fill-rule:nonzero;"/>
        </g>
        <g transform="matrix(1,0,0,1,114.929,112.372)">
            <path d="M0,48.447C0,48.447 -0.994,34.849 -12.58,25.176C-18.292,20.406 -16.999,16.765 -21.703,15.483C-26.407,14.199 -33.25,10.208 -35.103,8.355C-36.956,6.502 -64.783,0 -71.911,2.566C-63.928,4.561 -56.235,16.048 -52.244,16.333C-48.252,16.618 -43.112,21.219 -37.411,25.211C-31.708,29.202 -27.262,26.744 -23.556,28.597C-19.85,30.45 -6.307,37.726 0,48.447" style="fill:rgb(52,122,52);fill-rule:nonzero;"/>
        </g>
        <g transform="matrix(1,0,0,1,107.868,115.986)">
            <path d="M0,33.953C-1.734,31.712 -3.575,29.556 -5.452,27.447C-6.4,26.402 -7.376,25.379 -8.418,24.446C-9.458,23.529 -10.606,22.698 -11.769,21.92C-12.938,21.145 -14.164,20.468 -15.425,19.84C-16.686,19.21 -17.985,18.601 -19.207,17.836C-20.435,17.096 -21.576,16.163 -22.64,15.269C-23.725,14.424 -24.944,13.712 -26.18,13.047C-31.17,10.432 -36.464,8.374 -41.708,6.248L-57.516,0C-52.186,1.924 -46.829,3.774 -41.526,5.779C-36.222,7.775 -30.921,9.812 -25.85,12.428C-24.59,13.096 -23.345,13.807 -22.188,14.696C-21.074,15.612 -20.009,16.468 -18.819,17.213C-17.645,17.964 -16.378,18.572 -15.112,19.218C-13.843,19.863 -12.59,20.57 -11.404,21.371C-10.226,22.183 -9.063,23.008 -8.02,24.013C-6.983,25.005 -6.035,26.068 -5.115,27.152C-3.269,29.315 -1.617,31.627 0,33.953" style="fill:rgb(42,107,42);fill-rule:nonzero;"/>
        </g>
        <g transform="matrix(1,0,0,1,94.5996,142.231)">
            <path d="M0,-11.821C1.526,-10.317 2.903,-8.652 4.063,-6.834C4.65,-5.93 5.156,-4.97 5.569,-3.967C5.982,-2.966 6.285,-1.903 6.371,-0.802L6.386,-0.603L6.189,-0.573C5.107,-0.41 4.024,-0.262 2.934,-0.162C1.843,-0.07 0.748,0 -0.348,-0.029C-1.444,-0.05 -2.541,-0.146 -3.619,-0.346C-4.683,-0.578 -5.778,-0.871 -6.654,-1.535C-5.74,-0.932 -4.644,-0.717 -3.583,-0.557C-2.513,-0.403 -1.429,-0.345 -0.347,-0.365C0.735,-0.389 1.817,-0.445 2.896,-0.557C3.974,-0.669 5.046,-0.831 6.117,-1.003L5.936,-0.775C5.795,-2.865 4.843,-4.837 3.779,-6.66C3.241,-7.578 2.638,-8.459 2.004,-9.317C1.376,-10.181 0.713,-11.022 0,-11.821" style="fill:rgb(42,107,42);fill-rule:nonzero;"/>
        </g>
        <g transform="matrix(1,0,0,1,87.6279,136.513)">
            <path d="M0,-9.654C1.262,-8.452 2.302,-7.032 3.227,-5.553C4.15,-4.069 4.896,-2.479 5.533,-0.851L5.625,-0.615L5.374,-0.567C3.29,-0.165 1.154,0 -0.966,-0.148C-3.075,-0.317 -5.205,-0.735 -7.084,-1.716C-5.132,-0.913 -3.03,-0.59 -0.946,-0.496C0.098,-0.457 1.145,-0.469 2.187,-0.552C3.23,-0.639 4.262,-0.805 5.292,-0.986L5.133,-0.701C4.541,-2.322 3.788,-3.879 2.951,-5.39C2.091,-6.887 1.137,-8.34 0,-9.654" style="fill:rgb(42,107,42);fill-rule:nonzero;"/>
        </g>
        <g transform="matrix(1,0,0,1,74.5459,129.205)">
            <path d="M0,-10.196C1.463,-8.923 2.802,-7.505 4.015,-5.982C5.223,-4.457 6.286,-2.789 6.958,-0.925L7.046,-0.68L6.783,-0.645C4.876,-0.393 2.96,-0.221 1.041,-0.123C-0.878,-0.035 -2.8,0 -4.719,-0.089C-2.802,-0.191 -0.889,-0.307 1.019,-0.469C2.927,-0.615 4.831,-0.817 6.726,-1.07L6.552,-0.79C5.941,-2.594 4.885,-4.229 3.759,-5.786C2.61,-7.334 1.345,-8.801 0,-10.196" style="fill:rgb(42,107,42);fill-rule:nonzero;"/>
        </g>
        <g transform="matrix(1,0,0,1,62.9639,125.208)">
            <path d="M0,-7.721C1.495,-7.014 2.936,-6.188 4.294,-5.231C4.974,-4.753 5.635,-4.242 6.23,-3.648C6.819,-3.056 7.398,-2.405 7.683,-1.549L7.738,-1.383L7.58,-1.304C6.738,-0.885 5.853,-0.708 4.973,-0.552C4.092,-0.405 3.208,-0.293 2.323,-0.21C0.549,-0.072 -1.226,0 -3,-0.049C-1.233,-0.201 0.532,-0.351 2.285,-0.571C3.162,-0.675 4.036,-0.795 4.9,-0.956C5.757,-1.124 6.626,-1.322 7.385,-1.674L7.283,-1.429C7.056,-2.159 6.521,-2.803 5.96,-3.378C5.388,-3.952 4.76,-4.482 4.112,-4.984C2.806,-5.978 1.42,-6.878 0,-7.721" style="fill:rgb(42,107,42);fill-rule:nonzero;"/>
        </g>
        <g transform="matrix(1,0,0,1,111.469,62.3764)">
            <path d="M0,34.212C0,34.212 -4.847,15.68 -17.391,12.829C-29.936,9.978 -33.927,5.131 -41.91,2.566C-49.893,0 -57.59,6.272 -57.59,6.272C-57.59,6.272 -48.04,6.415 -38.845,13.043C-29.65,19.671 -12.473,31.86 0,34.212" style="fill:rgb(92,170,46);fill-rule:nonzero;"/>
        </g>
        <g transform="matrix(1,0,0,1,111.469,66.6704)">
            <path d="M0,29.918C0,29.918 -5.906,17.865 -18.45,15.014C-30.995,12.163 -33.884,5.131 -41.867,2.565C-49.85,0 -57.59,1.978 -57.59,1.978C-57.59,1.978 -48.04,2.121 -38.845,8.749C-29.65,15.377 -12.473,27.566 0,29.918" style="fill:rgb(52,122,52);fill-rule:nonzero;"/>
        </g>
        <g transform="matrix(1,0,0,1,148.247,126.382)">
            <path d="M0,23.235C0,23.235 3.991,15.11 11.119,10.406C18.247,5.701 23.521,6.771 27.655,4.526C31.789,2.28 42.195,0 47.042,1.568C51.888,3.135 60.112,3.278 63.413,12.829C60.156,10.833 54.882,13.399 49.18,15.395C43.478,17.391 36.756,13.399 31.707,15.395C26.657,17.391 22.095,22.237 16.678,22.523C11.261,22.808 0,23.235 0,23.235" style="fill:rgb(52,122,52);fill-rule:nonzero;"/>
        </g>
        <g transform="matrix(1,0,0,1,131.64,108.777)">
            <path d="M0,40.84C0,40.84 -0.642,29.935 8.553,24.59C17.747,19.244 26.514,15.395 30.149,9.194C33.784,2.993 45.758,0 57.305,5.132C48.752,4.704 37.847,12.829 26.3,23.093C14.754,33.356 0,40.84 0,40.84" style="fill:rgb(58,163,58);fill-rule:nonzero;"/>
        </g>
        <g transform="matrix(1,0,0,1,131.64,108.777)">
            <path d="M0,40.84C0,40.84 -0.642,29.935 8.553,24.59C17.747,19.244 26.744,20.577 30.379,14.376C34.014,8.174 45.758,0 57.305,5.132C48.752,4.704 37.847,12.829 26.3,23.093C14.754,33.356 0,40.84 0,40.84" style="fill:rgb(52,122,52);fill-rule:nonzero;"/>
        </g>
        <g transform="matrix(1,0,0,1,123.78,84.3577)">
            <path d="M0,65.259C0,65.259 1.464,39.874 12.28,34.91C23.096,29.946 22.354,19.798 33.954,14.354C45.554,8.909 54.714,0 69.46,1.558C56.269,5.941 52.626,12.093 47.108,19.448C41.59,26.802 35.12,30.291 32.75,33.161C30.379,36.03 23.122,45.633 18.634,47.143C14.146,48.652 2.555,58.998 0,65.259" style="fill:rgb(58,163,58);fill-rule:nonzero;"/>
        </g>
        <g transform="matrix(1,0,0,1,123.78,84.3577)">
            <path d="M0,65.259C0,65.259 4.714,43.342 15.53,38.378C26.346,33.414 24.907,23.447 36.507,18.003C48.106,12.559 54.714,0 69.46,1.558C56.269,5.941 52.626,12.093 47.108,19.448C41.59,26.802 35.12,30.291 32.75,33.161C30.379,36.03 23.122,45.633 18.634,47.143C14.146,48.652 2.555,58.998 0,65.259" style="fill:rgb(52,122,52);fill-rule:nonzero;"/>
        </g>
        <g transform="matrix(1,0,0,1,108.047,148.503)">
            <path d="M0,2.243C0,2.243 -10.478,-11.415 -22.808,-9.979C-35.138,-8.543 -32.501,-0.688 -44.476,-3.921C-56.45,-7.154 -75.267,4.535 -76.977,13.658C-66.428,5.39 -59.016,3.965 -43.05,6.245C-27.084,8.526 -9.408,0.521 0,2.243" style="fill:rgb(58,163,58);fill-rule:nonzero;"/>
        </g>
        <g transform="matrix(1,0,0,1,108.047,154.665)">
            <path d="M0,-3.919C0,-3.919 -9.991,-11.415 -22.32,-9.979C-34.65,-8.543 -32.221,-3.446 -44.195,-6.679C-56.169,-9.913 -75.267,-1.627 -76.977,7.496C-66.428,-0.772 -59.016,-2.197 -43.05,0.083C-27.084,2.364 -9.408,-5.641 0,-3.919" style="fill:rgb(52,122,52);fill-rule:nonzero;"/>
        </g>
        <g transform="matrix(1,0,0,1,111.352,149.861)">
            <path d="M0,17.375C0,17.375 2.625,4.375 -11.125,-3C-5,-3.25 2.047,4.375 4.086,15.5C4.875,20.625 0,17.375 0,17.375" style="fill:rgb(52,122,52);fill-rule:nonzero;"/>
        </g>
        <g transform="matrix(1,0,0,1,108.047,39.9953)">
            <path d="M0,79.971C0,79.971 -9.693,67.712 -5.987,49.465C-2.281,31.219 -1.141,31.789 3.707,23.521C8.553,15.253 11.974,4.99 21.953,4.135C31.931,3.279 30.506,-2.708 40.199,1.854C35.067,1.569 25.089,6.344 25.089,13.614C25.089,20.884 22.951,26.016 20.171,29.223C17.391,32.43 18.46,39.914 15.467,45.046C12.473,50.178 7.555,64.504 4.348,68.674C1.141,72.844 1.996,81.397 2.209,82.038C2.423,82.679 0,79.971 0,79.971" style="fill:rgb(58,163,58);fill-rule:nonzero;"/>
        </g>
        <g transform="matrix(1,0,0,1,130.285,48.9761)">
            <path d="M0,65.853C0,65.853 -5.417,43.621 -1.14,29.936C3.136,16.251 9.693,14.826 16.251,7.413C22.808,0 28.225,3.136 28.225,3.136C28.225,3.136 24.519,8.268 23.949,22.523C23.378,36.778 17.299,47.227 8.268,54.74C-0.763,62.252 0,65.853 0,65.853" style="fill:rgb(92,170,46);fill-rule:nonzero;"/>
        </g>
        <g transform="matrix(1,0,0,1,106.622,91.1709)">
            <path d="M0,34.227C0,34.227 -6.843,10.834 -20.527,5.417C-34.212,0 -35.067,2.281 -44.761,1.711C-54.455,1.141 -66.144,5.703 -71.561,9.979C-57.305,5.703 -42.48,12.511 -33.072,17.945C-23.664,23.378 0,34.227 0,34.227" style="fill:rgb(58,163,58);fill-rule:nonzero;"/>
        </g>
        <g transform="matrix(1,0,0,1,106.622,93.5409)">
            <path d="M0,31.857C0,31.857 -10.264,16.362 -23.949,10.945C-37.633,5.528 -36.452,1.14 -46.145,0.57C-55.838,0 -66.144,3.333 -71.561,7.609C-57.305,3.333 -42.48,10.141 -33.072,15.575C-23.664,21.008 0,31.857 0,31.857" style="fill:rgb(52,122,52);fill-rule:nonzero;"/>
        </g>
        <g transform="matrix(1,0,0,1,128.171,53.3401)">
            <path d="M0,62.281C2.1,56.893 3.958,51.304 4.99,45.626C5.123,44.916 5.216,44.204 5.305,43.492C5.41,42.775 5.478,42.003 5.629,41.267C5.896,39.779 6.336,38.302 6.977,36.923C8.267,34.147 10.17,31.907 11.083,29.194C11.583,27.87 11.831,26.428 12.242,24.994C12.623,23.567 13.07,22.161 13.539,20.764C14.484,17.973 15.574,15.232 16.843,12.574C18.117,9.922 19.564,7.34 21.334,4.984C23.102,2.655 25.23,0.471 27.931,-0.729C25.266,0.549 23.224,2.772 21.536,5.132C19.848,7.517 18.486,10.118 17.297,12.784C16.113,15.454 15.11,18.204 14.252,20.994C13.828,22.391 13.425,23.795 13.089,25.212C12.904,25.919 12.772,26.627 12.608,27.343L12.352,28.439L12.027,29.521C11.125,32.438 9.215,34.844 8.121,37.428C7.561,38.727 7.195,40.096 6.984,41.5C6.86,42.205 6.821,42.899 6.735,43.635C6.664,44.381 6.587,45.126 6.471,45.862C6.048,48.815 5.351,51.698 4.571,54.552C3.775,57.406 2.886,60.209 1.862,63.01L0,62.281Z" style="fill:rgb(52,122,52);fill-rule:nonzero;"/>
        </g>
        <g transform="matrix(1,0,0,1,129.102,100.269)">
            <path d="M0,-14.534C0.698,-12.141 1.426,-9.759 2.18,-7.388C2.573,-6.208 2.953,-5.025 3.379,-3.861C3.812,-2.703 4.266,-1.534 4.879,-0.499L4.521,-0.569C5.54,-1.3 6.567,-2.02 7.608,-2.722C8.652,-3.417 9.692,-4.12 10.771,-4.763C12.912,-6.069 15.109,-7.3 17.417,-8.284C16.297,-7.722 15.218,-7.085 14.151,-6.433C13.078,-5.792 12.021,-5.124 10.977,-4.437C8.887,-3.066 6.824,-1.653 4.814,-0.165L4.591,0L4.456,-0.235C3.812,-1.354 3.378,-2.529 2.953,-3.706C2.542,-4.888 2.152,-6.075 1.814,-7.277C1.122,-9.674 0.521,-12.096 0,-14.534" style="fill:rgb(52,122,52);fill-rule:nonzero;"/>
        </g>
        <g transform="matrix(1,0,0,1,134.102,89.3928)">
            <path d="M0,-15.074C0.194,-12.589 0.519,-10.118 0.916,-7.665C1.338,-5.216 1.831,-2.778 2.574,-0.415L2.235,-0.562C4.77,-1.808 7.262,-3.152 9.65,-4.663C10.85,-5.409 12.028,-6.193 13.149,-7.05C14.259,-7.909 15.409,-8.782 16.167,-9.991C15.481,-8.736 14.378,-7.775 13.309,-6.85C12.208,-5.947 11.049,-5.117 9.868,-4.325C8.684,-3.537 7.461,-2.808 6.224,-2.107C4.983,-1.413 3.734,-0.731 2.447,-0.123L2.188,0L2.108,-0.27C1.399,-2.677 0.876,-5.132 0.555,-7.61C0.215,-10.086 0.03,-12.58 0,-15.074" style="fill:rgb(52,122,52);fill-rule:nonzero;"/>
        </g>
        <g transform="matrix(1,0,0,1,139.935,78.5823)">
            <path d="M0,-13.18C-0.118,-11.025 -0.092,-8.868 0.042,-6.726C0.213,-4.591 0.479,-2.446 1.184,-0.441L0.833,-0.573C1.86,-1.18 2.881,-1.801 3.845,-2.511C4.812,-3.217 5.75,-3.963 6.658,-4.747C7.571,-5.524 8.458,-6.334 9.316,-7.176C10.183,-8.009 11.031,-8.864 11.833,-9.763C10.362,-7.851 8.707,-6.08 6.922,-4.447C6.036,-3.622 5.084,-2.871 4.119,-2.138C3.147,-1.413 2.132,-0.742 1.072,-0.145L0.813,0L0.722,-0.278C0.036,-2.367 -0.252,-4.541 -0.325,-6.706C-0.399,-8.873 -0.286,-11.04 0,-13.18" style="fill:rgb(52,122,52);fill-rule:nonzero;"/>
        </g>
        <g transform="matrix(1,0,0,1,145.269,66.2033)">
            <path d="M0,-7.301C-0.236,-6.132 -0.356,-4.947 -0.357,-3.773C-0.333,-2.6 -0.2,-1.426 0.223,-0.352L-0.039,-0.501C0.676,-0.641 1.381,-0.904 2.073,-1.193C2.765,-1.485 3.437,-1.833 4.098,-2.2C5.437,-2.91 6.727,-3.718 8.021,-4.53C6.863,-3.53 5.613,-2.641 4.306,-1.837C3.646,-1.446 2.969,-1.079 2.263,-0.761C1.559,-0.442 0.83,-0.155 0.04,-0.03L-0.158,0L-0.222,-0.179C-0.64,-1.342 -0.788,-2.575 -0.706,-3.781C-0.636,-4.986 -0.406,-6.176 0,-7.301" style="fill:rgb(52,122,52);fill-rule:nonzero;"/>
        </g>
        <g transform="matrix(1,0,0,1,109.587,44.6519)">
            <path d="M0,78.124C-0.292,77.832 -0.404,77.654 -0.566,77.424C-0.719,77.205 -0.833,76.985 -0.966,76.765C-1.19,76.32 -1.404,75.874 -1.562,75.419C-1.911,74.514 -2.133,73.593 -2.316,72.673C-2.646,70.83 -2.786,68.981 -2.763,67.15C-2.748,63.481 -2.233,59.875 -1.53,56.332C-0.802,52.802 -0.021,49.26 1.36,45.863C2.04,44.172 2.877,42.557 3.628,40.958C4.392,39.36 4.988,37.716 5.427,36.007C6.157,32.525 7.166,29.012 8.396,25.647C9.622,22.267 11.038,18.954 12.704,15.768C14.373,12.587 16.279,9.516 18.573,6.745C20.863,3.994 23.591,1.512 26.856,0C23.626,1.585 20.975,4.114 18.76,6.897C16.544,9.7 14.721,12.792 13.135,15.987C11.552,19.186 10.221,22.507 9.08,25.886C7.933,29.28 7.021,32.686 6.376,36.236C5.975,38.009 5.394,39.764 4.658,41.42C3.934,43.084 3.165,44.677 2.556,46.329C1.333,49.618 0.642,53.127 -0.009,56.616C-0.626,60.105 -1.05,63.638 -0.99,67.139C-0.976,68.889 -0.801,70.624 -0.466,72.299C-0.283,73.13 -0.065,73.952 0.248,74.713C0.392,75.103 0.576,75.459 0.76,75.811C0.864,75.971 0.959,76.148 1.066,76.294C1.159,76.431 1.313,76.615 1.34,76.639L0,78.124Z" style="fill:rgb(52,122,52);fill-rule:nonzero;"/>
        </g>
        <g transform="matrix(1,0,0,1,104.663,99.2988)">
            <path d="M0,-16.48C0.726,-13.758 1.485,-11.046 2.276,-8.347C2.691,-7.004 3.085,-5.655 3.541,-4.328C4.006,-3.014 4.478,-1.667 5.173,-0.507L4.813,-0.569C6.638,-1.937 8.438,-3.335 10.243,-4.73L12.938,-6.836C13.839,-7.535 14.737,-8.239 15.605,-8.98C13.977,-7.377 12.242,-5.886 10.483,-4.429C8.725,-2.971 6.92,-1.572 5.115,-0.172L4.892,0L4.755,-0.235C4.014,-1.503 3.571,-2.845 3.11,-4.184C2.673,-5.527 2.267,-6.879 1.908,-8.244C1.179,-10.968 0.548,-13.716 0,-16.48" style="fill:rgb(52,122,52);fill-rule:nonzero;"/>
        </g>
        <g transform="matrix(1,0,0,1,109.422,88.3673)">
            <path d="M0,-15.024C0.247,-12.544 0.623,-10.08 1.072,-7.636C1.545,-5.197 2.089,-2.77 2.882,-0.423L2.54,-0.563C5.048,-1.861 7.511,-3.258 9.867,-4.819C11.051,-5.59 12.212,-6.398 13.315,-7.279C14.407,-8.161 15.538,-9.058 16.27,-10.282C15.611,-9.013 14.528,-8.029 13.479,-7.082C12.397,-6.156 11.256,-5.302 10.092,-4.485C8.924,-3.672 7.718,-2.918 6.495,-2.191C5.27,-1.471 4.035,-0.763 2.761,-0.128L2.504,0L2.419,-0.268C1.66,-2.66 1.085,-5.103 0.712,-7.574C0.32,-10.042 0.082,-12.532 0,-15.024" style="fill:rgb(52,122,52);fill-rule:nonzero;"/>
        </g>
        <g transform="matrix(1,0,0,1,115.067,77.4657)">
            <path d="M0,-13.16C-0.073,-11.003 -0.001,-8.847 0.178,-6.708C0.394,-4.577 0.704,-2.438 1.451,-0.448L1.099,-0.573C2.112,-1.202 3.12,-1.844 4.069,-2.574C5.02,-3.3 5.942,-4.066 6.833,-4.868C7.73,-5.664 8.601,-6.493 9.44,-7.353C10.289,-8.203 11.12,-9.076 11.902,-9.993C10.472,-8.05 8.854,-6.245 7.104,-4.574C6.236,-3.731 5.3,-2.96 4.35,-2.207C3.394,-1.462 2.393,-0.769 1.346,-0.151L1.09,0L0.993,-0.276C0.263,-2.349 -0.071,-4.518 -0.188,-6.681C-0.309,-8.846 -0.24,-11.014 0,-13.16" style="fill:rgb(52,122,52);fill-rule:nonzero;"/>
        </g>
        <g transform="matrix(1,0,0,1,120.262,64.9983)">
            <path d="M0,-7.303C-0.211,-6.129 -0.307,-4.943 -0.283,-3.768C-0.235,-2.596 -0.077,-1.425 0.368,-0.361L0.104,-0.504C0.816,-0.659 1.515,-0.937 2.2,-1.24C2.886,-1.546 3.55,-1.909 4.205,-2.289C5.528,-3.027 6.801,-3.863 8.077,-4.701C6.941,-3.678 5.71,-2.762 4.42,-1.931C3.768,-1.526 3.099,-1.144 2.4,-0.812C1.703,-0.478 0.979,-0.176 0.192,-0.035L-0.004,0L-0.073,-0.178C-0.515,-1.332 -0.688,-2.562 -0.632,-3.769C-0.587,-4.975 -0.383,-6.171 0,-7.303" style="fill:rgb(52,122,52);fill-rule:nonzero;"/>
        </g>
        <g transform="matrix(1,0,0,1,123.862,139.228)">
            <path d="M0,-24.268C0,-24.268 9.542,-33.928 12.193,-27.508C14.843,-21.087 3.711,-6.244 -14.578,-3.196C-32.867,-0.147 -29.156,9.66 -29.156,9.66C-29.156,9.66 -37.992,3.298 -29.466,-13.4C-20.939,-30.1 -5.831,-31.16 0,-24.268" style="fill:rgb(56,140,56);fill-rule:nonzero;"/>
        </g>
        <g transform="matrix(1,0,0,1,124.071,141.071)">
            <path d="M0,-25.611C-0.236,-25.661 -0.72,-25.64 -1.101,-25.548C-1.507,-25.469 -1.911,-25.33 -2.311,-25.177C-3.106,-24.85 -3.872,-24.418 -4.61,-23.939C-6.086,-22.972 -7.434,-21.788 -8.707,-20.534C-9.36,-19.922 -9.947,-19.248 -10.579,-18.603C-11.207,-17.931 -11.881,-17.304 -12.594,-16.727C-14.024,-15.577 -15.599,-14.636 -17.213,-13.811C-20.419,-12.148 -23.88,-10.908 -26.537,-8.461C-27.86,-7.259 -28.916,-5.762 -29.633,-4.116C-30.359,-2.47 -30.8,-0.704 -31.053,1.081C-30.842,-0.71 -30.441,-2.489 -29.749,-4.166C-29.064,-5.841 -28.028,-7.389 -26.709,-8.645C-24.058,-11.2 -20.578,-12.537 -17.449,-14.256C-15.871,-15.11 -14.353,-16.067 -12.994,-17.213C-11.629,-18.34 -10.529,-19.758 -9.24,-21.067C-7.973,-22.373 -6.624,-23.617 -5.1,-24.666C-4.337,-25.186 -3.537,-25.665 -2.669,-26.044C-2.231,-26.224 -1.783,-26.391 -1.304,-26.496C-0.809,-26.599 -0.375,-26.692 0.279,-26.571L0,-25.611Z" style="fill:rgb(32,122,32);fill-rule:nonzero;"/>
        </g>
        <g transform="matrix(1,0,0,1,93.3521,136.867)">
            <path d="M0,-6.411C0.68,-6.78 1.422,-7.017 2.164,-7.237C2.912,-7.441 3.675,-7.585 4.441,-7.703C5.977,-7.927 7.534,-7.962 9.083,-7.911L9.431,-7.9L9.302,-7.574C8.709,-6.08 8.165,-4.568 7.64,-3.048C7.115,-1.528 6.618,0.002 6.167,1.551C6.41,-0.047 6.819,-1.615 7.267,-3.167C7.73,-4.716 8.264,-6.243 8.84,-7.754L9.059,-7.416C8.297,-7.453 7.534,-7.475 6.771,-7.458C6.008,-7.442 5.247,-7.392 4.486,-7.329C2.97,-7.176 1.449,-6.933 0,-6.411" style="fill:rgb(32,122,32);fill-rule:nonzero;"/>
        </g>
        <g transform="matrix(1,0,0,1,98.4146,133.968)">
            <path d="M0,-11.482C2.322,-11.773 4.662,-11.93 7.008,-11.933C8.182,-11.938 9.356,-11.877 10.529,-11.761C11.698,-11.633 12.883,-11.484 14.014,-11.036L14.18,-10.97L14.168,-10.797C14.101,-9.802 14.009,-8.809 13.866,-7.822C13.712,-6.836 13.535,-5.852 13.254,-4.893C12.984,-3.933 12.676,-2.981 12.257,-2.074C11.828,-1.176 11.345,-0.29 10.688,0.456C11.286,-0.336 11.695,-1.246 12.05,-2.161C12.404,-3.079 12.683,-4.024 12.903,-4.982C13.13,-5.939 13.281,-6.912 13.426,-7.883C13.554,-8.858 13.631,-9.839 13.683,-10.822L13.837,-10.584C12.778,-10.973 11.625,-11.165 10.479,-11.299C9.328,-11.433 8.165,-11.494 7.001,-11.528C4.674,-11.603 2.337,-11.571 0,-11.482" style="fill:rgb(32,122,32);fill-rule:nonzero;"/>
        </g>
        <g transform="matrix(1,0,0,1,107.697,130.341)">
            <path d="M0,-16.355C0.987,-16.47 1.989,-16.351 2.977,-16.253C3.967,-16.135 4.948,-15.949 5.919,-15.721C7.869,-15.285 9.752,-14.585 11.573,-13.761L11.649,-13.727L11.686,-13.651C12.207,-12.585 12.663,-11.484 12.97,-10.337C13.309,-9.2 13.503,-8.022 13.604,-6.843C13.772,-4.484 13.508,-2.077 12.655,0.115C13.004,-1.005 13.174,-2.168 13.256,-3.329C13.345,-4.488 13.34,-5.655 13.198,-6.806C13.064,-7.956 12.873,-9.103 12.521,-10.207C12.212,-11.324 11.732,-12.381 11.253,-13.433L11.366,-13.323C9.591,-14.177 7.728,-14.835 5.83,-15.372C4.881,-15.643 3.915,-15.852 2.943,-16.033C1.974,-16.203 0.988,-16.396 0,-16.355" style="fill:rgb(32,122,32);fill-rule:nonzero;"/>
        </g>
        <g transform="matrix(1,0,0,1,122.661,124.236)">
            <path d="M0,-9.542C1.089,-9.228 2.097,-8.77 3.061,-8.214C4.019,-7.653 4.908,-6.968 5.656,-6.146C6.407,-5.324 6.949,-4.323 7.261,-3.268C7.616,-2.209 7.543,-1.081 7.441,0C7.502,-1.087 7.53,-2.205 7.141,-3.231C6.795,-4.255 6.231,-5.206 5.473,-5.976C4.716,-6.747 3.828,-7.377 2.878,-7.887C1.929,-8.389 0.909,-8.802 -0.117,-9.056L0,-9.542Z" style="fill:rgb(32,122,32);fill-rule:nonzero;"/>
        </g>
        <g transform="matrix(1,0,0,1,147.727,134.008)">
            <path d="M0,15.609C2.126,13.843 4.282,12.1 6.575,10.538C7.719,9.755 8.883,8.997 10.106,8.32C11.333,7.629 12.643,7.127 13.953,6.659C15.27,6.197 16.627,5.837 17.988,5.55C19.35,5.26 20.707,5.029 22.018,4.667C23.332,4.312 24.606,3.833 25.849,3.268C27.126,2.672 28.481,2.256 29.826,1.905C35.235,0.565 40.798,0 46.348,0.079C49.121,0.135 51.9,0.341 54.626,0.872C57.344,1.409 60.036,2.215 62.458,3.561C59.988,2.306 57.288,1.608 54.574,1.174C51.851,0.763 49.098,0.573 46.344,0.588C43.591,0.598 40.841,0.796 38.107,1.109C35.376,1.429 32.656,1.893 30.004,2.588C28.68,2.945 27.382,3.352 26.156,3.936C24.892,4.534 23.564,5.019 22.206,5.371C20.848,5.732 19.473,5.953 18.13,6.228C16.784,6.499 15.461,6.837 14.165,7.278C12.871,7.73 11.588,8.216 10.377,8.832C9.16,9.453 7.979,10.166 6.818,10.906C4.507,12.405 2.214,13.953 0,15.609" style="fill:rgb(42,107,42);fill-rule:nonzero;"/>
        </g>
        <g transform="matrix(1,0,0,1,165.727,146.434)">
            <path d="M0,-12.096C-0.901,-11.516 -1.764,-10.883 -2.6,-10.218C-3.44,-9.56 -4.256,-8.871 -5.02,-8.131C-6.531,-6.658 -7.975,-5.013 -8.669,-3.035L-8.783,-3.303C-7.797,-2.852 -6.807,-2.408 -5.797,-2.014C-4.788,-1.617 -3.76,-1.275 -2.724,-0.963C-1.686,-0.655 -0.626,-0.421 0.446,-0.284C1.511,-0.155 2.625,-0.07 3.667,-0.407C2.646,0 1.511,-0.011 0.425,-0.072C-0.668,-0.166 -1.75,-0.367 -2.812,-0.639C-3.877,-0.903 -4.913,-1.263 -5.939,-1.643C-6.963,-2.03 -7.968,-2.462 -8.967,-2.908L-9.148,-2.99L-9.081,-3.177C-8.705,-4.216 -8.129,-5.159 -7.464,-6.013C-6.798,-6.87 -6.054,-7.66 -5.247,-8.375C-3.644,-9.817 -1.873,-11.054 0,-12.096" style="fill:rgb(42,107,42);fill-rule:nonzero;"/>
        </g>
        <g transform="matrix(1,0,0,1,173.394,142.762)">
            <path d="M0,-9.985C-1.447,-9.022 -2.754,-7.877 -3.982,-6.664C-5.191,-5.431 -6.333,-4.132 -7.337,-2.728L-7.414,-3.044C-6.47,-2.595 -5.519,-2.159 -4.538,-1.798C-3.555,-1.439 -2.55,-1.148 -1.533,-0.907C0.5,-0.441 2.613,-0.192 4.708,-0.443C2.635,0 0.471,-0.167 -1.606,-0.566C-3.689,-0.989 -5.703,-1.719 -7.605,-2.662L-7.834,-2.776L-7.682,-2.979C-6.634,-4.378 -5.49,-5.711 -4.205,-6.894C-2.918,-8.073 -1.537,-9.164 0,-9.985" style="fill:rgb(42,107,42);fill-rule:nonzero;"/>
        </g>
        <g transform="matrix(1,0,0,1,188.096,139.705)">
            <path d="M0,-11C-1.668,-10.015 -3.279,-8.938 -4.8,-7.754C-6.3,-6.554 -7.755,-5.26 -8.825,-3.684L-8.918,-4C-7.159,-3.251 -5.378,-2.549 -3.578,-1.898C-1.783,-1.232 0.029,-0.609 1.85,0C-0.023,-0.427 -1.866,-0.974 -3.692,-1.57C-5.515,-2.178 -7.316,-2.854 -9.086,-3.607L-9.33,-3.71L-9.18,-3.923C-8.035,-5.54 -6.565,-6.864 -4.995,-8.011C-3.418,-9.154 -1.75,-10.164 0,-11" style="fill:rgb(42,107,42);fill-rule:nonzero;"/>
        </g>
        <g transform="matrix(1,0,0,1,199.665,138.524)">
            <path d="M0,-8.194C-1.594,-7.761 -3.169,-7.264 -4.694,-6.654C-5.453,-6.343 -6.198,-6 -6.903,-5.599C-7.598,-5.195 -8.285,-4.717 -8.698,-4.074L-8.732,-4.338C-8.094,-3.796 -7.31,-3.373 -6.528,-2.983C-5.738,-2.597 -4.928,-2.247 -4.111,-1.914C-2.48,-1.233 -0.819,-0.618 0.844,0C-0.88,-0.426 -2.572,-0.969 -4.244,-1.576C-5.075,-1.892 -5.896,-2.236 -6.707,-2.613C-7.513,-2.998 -8.318,-3.405 -9.018,-4.033L-9.149,-4.152L-9.052,-4.297C-8.549,-5.046 -7.817,-5.519 -7.092,-5.932C-6.36,-6.345 -5.585,-6.661 -4.803,-6.941C-3.239,-7.501 -1.629,-7.912 0,-8.194" style="fill:rgb(42,107,42);fill-rule:nonzero;"/>
        </g>
        <g transform="matrix(0.145276,0.989391,0.989391,-0.145276,142.211,161.507)">
            <path d="M0.223,-62.008L62.635,-62.008L70.576,-7.922L10.682,9.228L0.223,-62.008Z" style="fill:rgb(209,129,51);fill-rule:nonzero;"/>
        </g>
        <g transform="matrix(1,0,0,1,151.515,222.184)">
            <path d="M0,-41.146L1.379,-51.448L-70.621,-51.448L-61.554,10.302L-49.528,10.302C-50.663,-19.301 -34.348,-48.972 0,-41.146" style="fill:rgb(196,108,35);fill-rule:nonzero;"/>
        </g>
        <g transform="matrix(1,0,0,1,151.56,161.486)">
            <path d="M0,14L-69.333,14C-73.184,14 -76.333,10.85 -76.333,7C-76.333,3.15 -73.184,0 -69.333,0L0,0C3.85,0 7,3.15 7,7C7,10.85 3.85,14 0,14" style="fill:rgb(209,129,51);fill-rule:nonzero;"/>
        </g>
        <g transform="matrix(-0.981643,0.190728,0.190728,0.981643,140.297,176.834)">
            <path d="M9.164,-23.262C9.164,-23.262 5.457,-30.384 -0.973,-25.358C-7.402,-20.334 -5.457,-2.85 9.164,7.378C8.473,0.833 8.827,-2.576 13.088,-9.793C17.35,-17.01 14.42,-23.121 9.164,-23.262" style="fill:rgb(58,163,58);fill-rule:nonzero;"/>
        </g>
        <g transform="matrix(1,0,0,1,126.984,183.571)">
            <path d="M0,-28.243C1.372,-27.899 2.619,-27.301 3.742,-26.48C4.85,-25.653 5.785,-24.555 6.332,-23.27C6.884,-21.988 7.047,-20.572 6.933,-19.209C6.795,-17.883 6.855,-16.565 7.104,-15.258C7.576,-12.65 8.819,-10.161 8.928,-7.425C8.994,-6.068 8.719,-4.712 8.212,-3.465C7.693,-2.22 6.98,-1.069 6.171,0C6.956,-1.088 7.639,-2.253 8.125,-3.499C8.599,-4.748 8.837,-6.087 8.742,-7.415C8.577,-10.093 7.288,-12.526 6.738,-15.184C6.452,-16.508 6.356,-17.894 6.468,-19.243C6.556,-20.55 6.376,-21.875 5.845,-23.056C4.786,-25.441 2.345,-26.998 -0.132,-27.591L0,-28.243Z" style="fill:rgb(32,122,32);fill-rule:nonzero;"/>
        </g>
        <g transform="matrix(1,0,0,1,138.693,174.129)">
            <path d="M0,3.186C-0.391,2.309 -0.96,1.535 -1.572,0.811C-2.202,0.101 -2.87,-0.577 -3.61,-1.174L-3.36,-1.232C-4.304,0.842 -5.346,2.885 -6.67,4.746C-5.598,2.736 -4.592,0.704 -3.654,-1.364L-3.564,-1.56L-3.404,-1.421C-2.671,-0.791 -1.972,-0.112 -1.386,0.659C-0.802,1.426 -0.277,2.261 0,3.186" style="fill:rgb(32,122,32);fill-rule:nonzero;"/>
        </g>
        <g transform="matrix(1,0,0,1,140.271,167.022)">
            <path d="M0,3.99C-1.012,2.948 -2.059,1.942 -3.15,0.994C-3.7,0.525 -4.253,0.061 -4.841,-0.352C-5.426,-0.763 -6.039,-1.155 -6.698,-1.38L-6.52,-1.429C-6.97,-0.9 -7.407,-0.361 -7.822,0.197C-8.229,0.759 -8.624,1.331 -8.988,1.921C-9.355,2.51 -9.693,3.118 -9.979,3.751C-10.271,4.379 -10.534,5.031 -10.655,5.72C-10.587,5.022 -10.372,4.345 -10.126,3.688C-9.869,3.033 -9.55,2.405 -9.206,1.792C-8.512,0.568 -7.67,-0.565 -6.772,-1.643L-6.7,-1.73L-6.593,-1.693C-5.874,-1.443 -5.258,-1.026 -4.664,-0.599C-4.074,-0.163 -3.506,0.298 -2.978,0.802C-1.907,1.793 -0.919,2.864 0,3.99" style="fill:rgb(32,122,32);fill-rule:nonzero;"/>
        </g>
        <g transform="matrix(1,0,0,1,139.609,163.051)">
            <path d="M0,0.269C-0.431,-0.176 -0.975,-0.497 -1.499,-0.821C-2.033,-1.135 -2.572,-1.439 -3.134,-1.698C-4.254,-2.22 -5.416,-2.648 -6.611,-2.949L-6.51,-2.957C-8.002,-2.272 -9.421,-1.405 -10.635,-0.289C-11.256,0.251 -11.825,0.853 -12.347,1.493C-12.87,2.131 -13.363,2.803 -13.752,3.538C-13.073,2.016 -12.034,0.662 -10.825,-0.496C-10.208,-1.063 -9.556,-1.596 -8.849,-2.049C-8.156,-2.527 -7.401,-2.902 -6.635,-3.246L-6.586,-3.269L-6.534,-3.254C-5.323,-2.928 -4.138,-2.492 -3.032,-1.902C-2.477,-1.613 -1.936,-1.297 -1.424,-0.938C-0.921,-0.572 -0.399,-0.21 0,0.269" style="fill:rgb(32,122,32);fill-rule:nonzero;"/>
        </g>
        <g transform="matrix(1,0,0,1,139.31,162.105)">
            <path d="M0,-5.885C-1.31,-7.066 -3.104,-7.571 -4.822,-7.566C-6.562,-7.576 -8.261,-7.039 -9.813,-6.279C-10.597,-5.902 -11.327,-5.442 -11.962,-4.852C-12.62,-4.294 -13.2,-3.642 -13.67,-2.917C-14.624,-1.482 -15.234,0.211 -15.333,1.964C-15.391,0.206 -14.864,-1.573 -13.913,-3.075C-13.438,-3.829 -12.85,-4.512 -12.179,-5.098C-11.525,-5.712 -10.747,-6.171 -9.948,-6.552C-8.359,-7.323 -6.605,-7.849 -4.819,-7.78C-3.054,-7.754 -1.251,-7.125 0,-5.885" style="fill:rgb(32,122,32);fill-rule:nonzero;"/>
        </g>
    </g>
</svg>
