<?xml version="1.0" encoding="UTF-8" standalone="no"?>
<!DOCTYPE svg PUBLIC "-//W3C//DTD SVG 1.1//EN" "http://www.w3.org/Graphics/SVG/1.1/DTD/svg11.dtd">
<svg width="100%" height="100%" viewBox="0 0 1403 666" version="1.1" xmlns="http://www.w3.org/2000/svg" xmlns:xlink="http://www.w3.org/1999/xlink" xml:space="preserve" xmlns:serif="http://www.serif.com/" style="fill-rule:evenodd;clip-rule:evenodd;stroke-linejoin:round;stroke-miterlimit:2;">
    <g transform="matrix(0.257645,0.96624,0.96624,-0.257645,1478.93,601.025)">
        <path d="M-591.033,-53.397L-443.207,89.975L53.962,-80.104L-126.501,-315.673L-591.033,-53.397Z" style="fill:rgb(204,213,225);fill-rule:nonzero;"/>
    </g>
    <g transform="matrix(1,0,0,1,939.48,346.117)">
        <g transform="matrix(1,0,0,1,146.99,118.904)">
            <path d="M0,-97.96C0,-97.96 41.164,-280.059 149.687,-272.575C258.209,-265.09 291.889,-175.41 246.982,-84.597C202.077,6.217 179.686,79.634 179.686,79.634L44.906,128.488L0,-97.96Z" style="fill:rgb(55,65,81);fill-rule:nonzero;"/>
        </g>
        <path d="M0,77.062C0,77.062 -0.683,76.987 -2.068,76.977C-9.57,76.893 -37.74,78.399 -90.636,101.301C-113.519,111.2 -141.023,125.102 -173.487,144.608C-294.864,217.542 -325.774,176.445 -325.774,176.445C-320.283,73.844 -70.223,-155.422 -70.223,-155.422L-61.016,-86.874L-5.876,61.279L0,77.062Z" style="fill:rgb(71,85,105);fill-rule:nonzero;"/>
    </g>
    <g transform="matrix(1,0,0,1,937.51,263.548)">
        <path d="M0,159.547C-7.502,159.463 -35.469,160.969 -88.469,183.871L-88.469,-24.324L-58.947,-4.304L-3.807,143.849L0,159.547Z" style="fill:rgb(55,65,81);fill-rule:nonzero;"/>
    </g>
    <g transform="matrix(1,0,0,1,864.72,550.376)">
        <path d="M0,-345.106C0,-345.106 71.53,-411.473 150.801,-405.942C230.071,-400.412 336.513,-370.451 347.574,-245.46C358.635,-120.469 382.444,33.674 382.444,33.674L112.892,-8.096C112.892,-8.096 48.669,-113.93 11.062,-216.797C-26.546,-319.666 -9.174,-337.365 0,-345.106" style="fill:rgb(229,231,235);fill-rule:nonzero;"/>
    </g>
    <g transform="matrix(1,0,0,1,993.8,568.934)">
        <path d="M0,-266.976L2.546,-22.317L82.768,0L0,-266.976Z" style="fill:rgb(209,213,219);fill-rule:nonzero;"/>
    </g>
    <g transform="matrix(1,0,0,1,922.21,546.617)">
        <path d="M0,-380.213C0,-380.213 1.135,-292.678 6.666,-248.435C12.196,-204.19 37.772,-57.958 55.402,0L13.137,26.144C13.137,26.144 -63.02,-225.205 -70.762,-279.405C-78.505,-333.605 -69.734,-361.039 0,-380.213" style="fill:rgb(71,85,105);fill-rule:nonzero;"/>
    </g>
    <g transform="matrix(1,0,0,1,1004.03,47.5504)">
        <path d="M0,150.8C0,156.806 -4.368,180.307 -5.463,185.228C-6.558,190.139 -28.104,206.549 -57.377,206.54C-61.296,206.53 -76.116,198.138 -82.626,187.557C-85.209,183.347 -86.481,178.801 -85.237,174.291C-80.868,158.453 -92.89,138.236 -99.99,128.394C-107.101,118.561 -112.012,103.808 -137.15,111.46C-137.59,111.592 -138.02,111.722 -138.441,111.825C-162.381,118.271 -170.69,88.59 -175.209,49.448C-178.895,17.53 -174.31,-3.293 -174.31,-3.293C-173.748,-18.636 -152.998,-55.749 -91.795,-45.916C-30.602,-36.075 -48.629,8.729 -43.165,53.541C-37.702,98.344 -14.753,104.35 -14.753,104.35C-14.753,104.35 0,144.784 0,150.8" style="fill:rgb(255,226,186);fill-rule:nonzero;"/>
    </g>
    <g transform="matrix(1,0,0,1,921.41,119.006)">
        <path d="M0,116.101C-2.583,111.891 -3.855,107.345 -2.611,102.835C1.758,86.997 -10.264,66.779 -17.364,56.937C-24.475,47.105 -29.386,32.351 -54.524,40.004C-54.964,40.135 -55.394,40.266 -55.815,40.369C-55.937,40.07 -55.993,39.911 -55.993,39.911C-55.993,39.911 -27.187,32.164 -14.558,19.357C-1.928,6.549 8.831,0 8.831,13.566C8.831,26.56 10.552,83.759 0,116.101" style="fill:rgb(255,212,162);fill-rule:nonzero;"/>
    </g>
    <g transform="matrix(1,0,0,1,985.82,615.308)">
        <path d="M0,-471.201C0,-471.201 2.242,-330.398 14.13,-266.243C26.016,-202.09 44.818,-60.346 44.818,-60.346L258.946,-34.797L136.499,-448.413C136.499,-448.413 70.216,-475.952 0,-471.201" style="fill:rgb(71,85,105);fill-rule:nonzero;"/>
    </g>
    <g transform="matrix(1,0,0,1,1096.41,597.967)">
        <path d="M-1.458,-430.872C32.035,-443.875 66.043,-407.78 118.498,-340.501C170.954,-273.22 254.198,-101.03 242.795,-44.012C231.392,13.003 126.48,8.442 52.357,7.303L10.165,-94.188L88.85,-105.591C88.85,-105.591 -98.386,-393.241 -1.458,-430.872Z" style="fill:rgb(71,85,105);fill-rule:nonzero;"/>
    </g>
    <g transform="matrix(1,0,0,1,1093.19,603.32)">
        <path d="M0,-79.817C0,-79.817 -97.499,-57.596 -106.474,-56.885C-115.447,-56.173 -142.73,-49.434 -142.73,-49.434C-142.73,-49.434 -186.409,-62.88 -200.566,-63.45C-214.721,-64.022 -232.998,-66.725 -236.142,-63.657C-239.285,-60.585 -275.111,-35.506 -275.982,-25.142L-265.325,-25.987C-265.325,-25.987 -272.906,-21.925 -268.241,-20.038C-263.575,-18.149 -259.825,-20.669 -259.825,-20.669C-259.825,-20.669 -261.532,-13.739 -258.684,-13.399C-255.834,-13.059 -227.113,-20.973 -216.617,-16.726C-206.12,-12.477 -171.266,0 -152.666,-0.343C-134.07,-0.689 -127.502,-5.449 -122.97,-5.245C-118.438,-5.038 22.382,-2.611 22.382,-2.611L0,-79.817Z" style="fill:rgb(255,226,186);fill-rule:nonzero;"/>
    </g>
    <g transform="matrix(0.257645,0.96624,0.96624,-0.257645,1177.87,555.975)">
        <path d="M-70.858,-27.74L44.215,-27.74L35.317,-95.185L-69.133,-94.85L-70.858,-27.74Z" style="fill:rgb(156,163,175);fill-rule:nonzero;"/>
    </g>
    <g transform="matrix(-0.795691,0.605703,0.605703,0.795691,717.88,525.333)">
        <path d="M-19.905,-166.401C-19.905,-166.401 100.357,-111.721 82.246,-62.266C64.136,-12.809 26.507,-19.269 -19.905,-41.767C-66.318,-64.265 -65.855,-76.553 -65.855,-76.553L-19.905,-166.401Z" style="fill:rgb(71,85,105);fill-rule:nonzero;"/>
    </g>
    <g transform="matrix(1,0,0,1,780.11,306.783)">
        <path d="M0,-44.684C-8.595,-34.071 -7.972,-31.34 -11.934,-22.416C-15.893,-13.491 -45.238,90.96 -45.238,90.96L-121.224,55.222C-121.224,55.222 -84.645,-2.118 -76.514,-16.929C-68.383,-31.738 -55.022,-62.036 -50.079,-73.911C-45.134,-85.787 -38.57,-117.939 -29.914,-126.792C-21.258,-135.644 11.075,-139.331 15.808,-137.115C20.541,-134.898 24.461,-125.301 28.338,-116.636C32.216,-107.969 30.073,-96.355 30.073,-96.355L28.476,-85.111L25.696,-83.007L11.663,-83.007L4.179,-61.484C4.179,-61.484 2.98,-48.365 0,-44.684" style="fill:rgb(255,226,186);fill-rule:nonzero;"/>
        <g transform="matrix(1,0,0,1,-589.722,-506.589)">
            <path d="M567.036,379C567.036,379 590.198,349.092 598.185,347.449C606.171,345.805 614.958,341.191 622.146,341.191C629.334,341.191 622.944,343.765 618.152,347.712C613.36,351.659 603.807,356.496 596.204,363.684C588.601,370.872 590.197,375.808 590.197,375.808L580.613,379L567.036,379Z" style="fill:rgb(255,226,186);fill-rule:nonzero;"/>
        </g>
    </g>
    <g transform="matrix(1,0,0,1,644.6,442.738)">
        <path d="M0,-93.528L-31.151,-49.217L86.185,2.099L105.602,-54.301L2.27,-95.627L0,-93.528Z" style="fill:rgb(156,163,175);fill-rule:nonzero;"/>
    </g>
    <g transform="matrix(1,0,0,1,1064.49,584.164)">
        <path d="M0,-54.182L22.943,1.745L7.765,-55.927L0,-54.182Z" style="fill:rgb(55,65,81);fill-rule:nonzero;"/>
    </g>
    <g transform="matrix(1,0,0,1,741.38,373.285)">
        <path d="M0,1.406L-52.981,-9.563L-2.709,10.969L0,1.406Z" style="fill:rgb(55,65,81);fill-rule:nonzero;"/>
    </g>
    <g transform="matrix(1,0,0,1,769.92,568.944)">
        <path d="M0,34.664C0,40.598 -4.811,45.832 -10.744,45.832L-133.164,45.832C-139.097,45.832 -147.006,41.725 -149.521,34.664L-163.846,-0.338C-163.846,-6.272 -159.036,-11.168 -153.102,-11.168L-31.618,-11.168C-25.684,-11.168 -16.911,-5.191 -14.325,-0.338L0,34.664Z" style="fill-rule:nonzero;"/>
    </g>
    <g transform="matrix(1,0,0,1,767.11,561.686)">
        <path d="M0,34.18C0,40.114 -4.811,45.09 -10.744,45.09L-133.164,45.09C-139.097,45.09 -147.006,41.241 -149.521,34.18L-163.846,-0.451C-163.846,-6.384 -159.036,-10.91 -153.102,-10.91L-31.618,-10.91C-25.684,-10.91 -16.911,-5.304 -14.325,-0.451L0,34.18Z" style="fill:white;fill-rule:nonzero;"/>
    </g>
    <g transform="matrix(1,1.11022e-16,1.11022e-16,1,747.52,565.779)">
        <path d="M0,26.994C0,31.779 -3.88,35.997 -8.665,35.997L-107.401,35.997C-112.187,35.997 -118.565,32.687 -120.593,26.994L-132.147,-0.753C-132.147,-5.538 -128.268,-9.003 -123.481,-9.003L-25.501,-9.003C-20.715,-9.003 -13.639,-4.667 -11.554,-0.753L0,26.994Z" style="fill:rgb(148,163,184);fill-rule:nonzero;"/>
    </g>
    <g transform="matrix(-0.285395,-0.95841,-0.95841,0.285395,746.39,569.936)">
        <path d="M-4.932,-6.615C-7.463,-6.615 -9.515,-4.311 -9.514,-1.468C-9.514,1.373 -7.462,3.677 -4.932,3.676C-2.399,3.676 -0.349,1.372 -0.349,-1.47C-0.35,-4.311 -2.4,-6.616 -4.932,-6.615" style="fill:rgb(229,231,235);fill-rule:nonzero;"/>
    </g>
    <g transform="matrix(0.958626,0,0,0.996014,901.52,261.811)">
        <path d="M0,-90.38C0,-90.38 2.69,-24.444 25.323,0C25.323,0 24.247,-70.009 0,-90.38" style="fill:rgb(71,85,105);fill-rule:nonzero;"/>
    </g>
</svg>
