<?xml version="1.0" encoding="UTF-8" standalone="no"?>
<!DOCTYPE svg PUBLIC "-//W3C//DTD SVG 1.1//EN" "http://www.w3.org/Graphics/SVG/1.1/DTD/svg11.dtd">
<svg width="100%" height="100%" viewBox="0 0 24 24">
    <g transform="matrix(1,0,0,1,1.41377,0)">
        <g transform="matrix(0.00242962,-7.27518e-35,-7.27518e-35,-0.00242962,1.64524,23.9574)">
            <path fill="current"  d="M840,9790C456,9784 421,9782 374,9764C250,9714 131,9605 65,9479C28,9409 26,9400 19,9275C15,9204 11,7176 11,4769L10,394L46,334C129,196 228,97 338,43C389,18 400,17 658,8C986,-4 6552,6 6818,19C7001,28 7001,28 7057,62C7146,116 7253,237 7305,344L7350,436L7350,4065C7349,6062 7345,7783 7341,7890C7331,8106 7325,8132 7262,8209C7181,8309 6843,8654 6415,9074C5867,9611 5748,9719 5656,9765L5587,9800L3421,9798C2230,9797 1068,9793 840,9790ZM5310,8670C5315,8042 5318,7938 5332,7890C5351,7824 5391,7786 5459,7769C5491,7761 5728,7756 6228,7753L6950,7748L6949,4357C6949,2491 6945,852 6941,714C6934,494 6931,460 6914,431L6895,399L3725,403C1920,406 530,412 498,417C466,422 437,429 434,433C430,437 423,525 419,628C408,905 409,8781 420,9058C429,9288 439,9362 463,9377C480,9388 1703,9395 3635,9395L5305,9395L5310,8670ZM5986,8923C6430,8499 6745,8179 6729,8169C6721,8164 6495,8160 6219,8160L5723,8160L5717,8348C5703,8732 5710,9160 5730,9160C5734,9160 5849,9053 5986,8923Z"/>
        </g>
        <g transform="matrix(0.00242962,-7.27518e-35,-7.27518e-35,-0.00242962,1.64524,23.9574)">
            <path fill="current"  d="M3235,6105C3086,6073 2905,5976 2778,5861C2701,5791 2608,5666 2556,5561C2352,5156 2421,4711 2739,4376C2858,4251 2982,4170 3131,4118C3222,4086 3230,4085 3390,4085C3533,4085 3566,4088 3635,4108C3793,4154 3927,4228 4034,4329C4128,4419 4158,4501 4126,4585C4094,4668 3987,4732 3909,4715C3859,4704 3832,4688 3760,4625C3531,4425 3217,4431 3009,4639C2894,4754 2846,4889 2846,5095C2847,5307 2893,5433 3014,5555C3096,5637 3179,5685 3277,5705C3455,5743 3580,5711 3744,5586C3793,5548 3849,5511 3868,5503C3939,5473 4043,5513 4086,5586C4143,5683 4121,5791 4028,5875C3919,5973 3718,6073 3568,6104C3476,6123 3319,6124 3235,6105Z"/>
        </g>
        <g transform="matrix(0.00242962,-7.27518e-35,-7.27518e-35,-0.00242962,1.64524,23.9574)">
            <path fill="current"  d="M5865,6063C5735,6036 5740,6045 5456,5340C5349,5075 5257,4853 5252,4848C5241,4837 5182,4968 4983,5450C4796,5904 4772,5955 4731,6002C4691,6047 4645,6064 4571,6058C4505,6053 4471,6032 4428,5968C4379,5897 4381,5863 4443,5705C4641,5199 5022,4289 5083,4175C5122,4102 5164,4077 5246,4078C5328,4079 5369,4103 5407,4175C5457,4267 5583,4568 5792,5090C6064,5773 6101,5889 6067,5957C6033,6022 5930,6076 5865,6063Z"/>
        </g>
        <g transform="matrix(0.00242962,-7.27518e-35,-7.27518e-35,-0.00242962,1.64524,23.9574)">
            <path fill="current"  d="M1724,3261L1403,3255L1368,3228C1298,3175 1270,3066 1305,2982C1314,2962 1337,2928 1358,2908L1394,2870L5960,2870L6014,2923C6078,2984 6089,3022 6070,3108C6061,3148 6047,3174 6020,3203C5988,3238 5975,3245 5924,3252C5854,3262 2185,3270 1724,3261Z" style="fill-rule:nonzero;"/>
        </g>
        <g transform="matrix(0.00242962,-7.27518e-35,-7.27518e-35,-0.00242962,1.64524,23.9574)">
            <path fill="current"  d="M1365,1978C1307,1914 1290,1876 1290,1812C1290,1758 1331,1681 1371,1660C1383,1653 1441,1644 1499,1639C1637,1627 5789,1627 5898,1639C5973,1647 5985,1651 6016,1681C6034,1699 6057,1733 6066,1757C6097,1838 6064,1951 6000,1982C5922,2020 5801,2022 3574,2027L1414,2032L1365,1978Z"/>
        </g>
    </g>
</svg>
